<?xml version="1.0" encoding="utf-8"?>
<!-- Uploaded to: SVG Repo, www.svgrepo.com, Generator: SVG Repo Mixer Tools -->
<svg width="800px" height="800px" viewBox="0 -29.47 372.562 372.562" xmlns="http://www.w3.org/2000/svg"><defs><style>.a{fill:#ffe9aa;}.b{fill:#79d3f1;}.c{fill:#ffffff;}.d{fill:#211715;}.e{fill:#ffda71;}.f{fill:#f2635f;}.g{fill:#957f6e;}.h{fill:#cfcdcd;}.i{fill:#8c8786;}.j{fill:#7a7473;}.k{fill:#b1adac;}.l{fill:#6dbf6b;}</style></defs><path class="a" d="M225.752,36.185c-20.694-1.525-41.781.054-62.488,2.246-39.057,4.133-80.456,11.53-109.071,38.063-30.03,27.846-39.613,71.62-37.226,112.2.727,12.359,2.44,24.773,6.74,36.4,7.612,20.587,23.271,37.9,42.413,49.035,16.787,9.763,36.115,14.9,55.6,15.9,43.924,10.1,91.709,8.07,132.278-11.434,39.882-19.174,71.7-56.459,78.553-99.681,1.891-11.93,1.925-24.066,1.665-36.137-.309-14.331-1.072-28.891-5.857-42.427-10.5-29.686-39.378-50.277-70.089-58.735A168.925,168.925,0,0,0,225.752,36.185Z"/><path class="b" d="M11.569,191.961c-2.522,3.317-8.342,12.335-9.353,15.9a13.056,13.056,0,0,0-.147,3.991c.671,5.614,3.308,19.824,4.385,23.959.255.979,4.314,2.441,4.588,3.917.2,1.078-3.581,3.806-3.278,5.811,1.684,11.142,6.225,37.1,8.66,48.249a7.026,7.026,0,0,0,1.23,3.033,4.887,4.887,0,0,0,2.7,1.439c4.418.615,11.994.127,19.7-1.3,9.376-1.74,15.359-3.77,19.262-5.929a4.887,4.887,0,0,0,2.007-2.313,7.037,7.037,0,0,0,.06-3.273c-1.729-11.281-6.8-37.138-9.231-48.142-.437-1.98-4.945-3.17-5.145-4.248-.274-1.477,2.99-4.3,2.877-5.3-.479-4.247-3.116-18.456-4.5-23.937a13.065,13.065,0,0,0-1.57-3.673c-2.222-2.963-10.818-9.305-14.435-11.483"/><path class="c" d="M45.149,204.621c-.069-.268-.132-.508-.2-.727-10.215,1.9-32.467,6.026-42.474,7.88.03.371.077.757.122,1.153.52,4.486,2.377,14.758,3.567,20.211l43.007-7.982c-.846-5.517-2.8-15.771-3.924-20.145Z"/><path class="d" d="M9.842,190.951a91.364,91.364,0,0,0-7.436,11.654,18.21,18.21,0,0,0-2.227,5.243,22.132,22.132,0,0,0,.3,7.038c.7,4.7,1.55,9.379,2.457,14.042.393,2.015.794,4.03,1.253,6.031a7.045,7.045,0,0,0,.62,2.034A6.748,6.748,0,0,0,7.236,239a16.918,16.918,0,0,1,1.466.943c.075.058.151.119.224.181l.178.168c.182.187.211.221.084.1l-.09-.946q.171-.348-.011-.011a3.413,3.413,0,0,1-.233.345c-.337.458-.735.874-1.092,1.316a9.046,9.046,0,0,0-1.83,3.009,7.127,7.127,0,0,0,.089,3.168c.676,4.376,1.407,8.744,2.153,13.108,1.69,9.893,3.437,19.781,5.421,29.619.359,1.781.643,3.618,1.151,5.363.658,2.256,2.635,4.818,5,5.491,2.5.71,5.546.356,8.089.167,3.483-.259,6.954-.742,10.4-1.317a96.318,96.318,0,0,0,17.314-4.141c1.812-.665,4.122-1.376,5.595-2.679,2.129-1.883,2.623-4.974,2.231-7.625C62,276,60.149,266.788,58.352,257.6q-1.435-7.337-2.95-14.655-.578-2.772-1.178-5.539c-.508-2.325-2.222-3.465-4.2-4.562-.365-.2-.729-.4-1.085-.621-.184-.112-.486-.151-.226-.147l-.109-.112a1.139,1.139,0,0,1,.37,1.059c.046-.019.368-.7.463-.848.345-.525.738-1.017,1.115-1.519a6.132,6.132,0,0,0,1.261-2.252,8.067,8.067,0,0,0-.213-2.8c-.648-4.466-1.489-8.908-2.357-13.336-.444-2.264-.9-4.526-1.41-6.776a17.722,17.722,0,0,0-2.3-6.358,22.674,22.674,0,0,0-4.079-4.081c-1.976-1.671-4.036-3.248-6.13-4.77-1.609-1.169-3.242-2.317-4.943-3.35-2.207-1.339-4.219,2.119-2.019,3.454a81.252,81.252,0,0,1,10.5,7.695c.716.612,1.422,1.237,2.094,1.9.3.3.6.6.887.918.111.125.224.248.327.379-.247-.314.218.365.274.463a20.053,20.053,0,0,1,1.7,5.59c1,4.569,1.876,9.17,2.685,13.777.331,1.885.653,3.772.926,5.667.024.166.048.332.07.5-.06-.446,0,.126.021.174a2.835,2.835,0,0,1,.037.309c-.069-.293.3-.524.012-.251a15.54,15.54,0,0,0-1.755,2.423c-1.32,1.908-1.664,4.052.427,5.523.681.479,1.436.84,2.155,1.257a9.063,9.063,0,0,1,1.15.746c.4.322.332.339.4.593.977,3.857,1.661,7.815,2.45,11.715,1.956,9.665,3.838,19.349,5.543,29.063.34,1.937.672,3.875.983,5.817.266,1.669.708,3.8-.666,5.161a7.315,7.315,0,0,1-2.057,1.09c-.848.385-1.72.715-2.6,1.024a70.035,70.035,0,0,1-7.362,2.084,120.092,120.092,0,0,1-19.343,3.074c-1.306.086-2.617.137-3.926.114a5.292,5.292,0,0,1-2.819-.4c-1.663-1.145-1.969-2.784-2.36-4.624-1.932-9.086-3.546-18.244-5.145-27.393q-1.206-6.9-2.339-13.8c-.3-1.837-.659-3.681-.875-5.529-.04-.341-.121.08.022-.252a5.907,5.907,0,0,1,.783-1.22,25.818,25.818,0,0,0,1.978-2.5c1.321-2.241-.382-4.006-2.175-5.209-.442-.3-.9-.567-1.352-.85-.152-.1-.306-.191-.456-.29-.047-.031-.574-.263-.329-.23l-.132-.127q.378.849.267.452c.023-.087-.081-.3-.1-.39-.075-.376-.179-.748-.264-1.123-.973-4.293-1.764-8.632-2.528-12.967-.381-2.165-.748-4.334-1.076-6.508a15.812,15.812,0,0,1-.312-5.583,17.647,17.647,0,0,1,2.222-4.825c1.182-2.117,2.46-4.183,3.784-6.214,1.024-1.57,2.074-3.128,3.2-4.624a2.012,2.012,0,0,0-.717-2.736,2.05,2.05,0,0,0-2.737.717Z"/><path class="d" d="M6.727,235.061l36.782-6.827,6.165-1.145c2.528-.469,1.457-4.325-1.063-3.857l-35.8,6.644L5.664,231.2c-2.528.47-1.457,4.325,1.063,3.858Z"/><path class="d" d="M3.351,213.643l35.185-6.531,6.6-1.226c2.528-.469,1.457-4.325-1.063-3.857l-35.7,6.626-6.092,1.13c-2.527.47-1.457,4.325,1.064,3.858Z"/><path class="c" d="M25.109,179.043c-3.086.618-9.907,1.893-13.064,2.527a1.826,1.826,0,0,0-1.3,2.195c.441,2.466,1.131,6.355,1.373,7.66,1.805-.335,15.7-3.016,16.507-3.167-.262-1.409-1.133-5.417-1.654-7.9A1.586,1.586,0,0,0,25.109,179.043Z"/><path class="d" d="M24.577,177.115c-4.149.828-8.313,1.585-12.464,2.407a3.9,3.9,0,0,0-2.96,2.02c-.694,1.361-.334,2.753-.082,4.171.372,2.082.736,4.165,1.121,6.244a2.039,2.039,0,0,0,2.46,1.4c5.508-1.025,11-2.14,16.507-3.167a2.039,2.039,0,0,0,1.4-2.461c-.353-1.881-.772-3.751-1.171-5.623a11.382,11.382,0,0,0-.851-3.232,3.544,3.544,0,0,0-3.424-1.828,2.064,2.064,0,0,0-2,2,2.012,2.012,0,0,0,2,2c.59-.074-.02-.01-.03-.153a8.119,8.119,0,0,0,.157.905q.282,1.337.568,2.673c.306,1.438.623,2.876.894,4.322l1.4-2.46c-5.507,1.027-11,2.142-16.506,3.167l2.46,1.4c-.338-1.824-.658-3.651-.984-5.477l-.267-1.5c0,.006-.1-.551-.082-.411-.072-.512.04-.243,0-.151-.014.03-.1.138-.135.143.17-.023.34-.068.509-.1q.635-.126,1.27-.249c3.761-.732,7.528-1.426,11.285-2.176a2,2,0,1,0-1.064-3.857Z"/><path class="e" d="M24.918,129.9c.607,1.313,1.928,4.268,2.322,5.17a5.211,5.211,0,0,1-2.795,6.653c-2.788,1.289-5.83.448-6.927-2-.382-.853-1.9-4.187-2.475-5.43-.588-1.272-1.493-3.449-1.884-4.295-1.379-2.985-.211-5.537,2.975-7.01,2.331-1.076,5.268-.555,6.775,2.706C22.909,125.7,24.312,128.587,24.918,129.9Z"/><path class="f" d="M44.918,124.625c-.458,1.371-1.524,4.428-1.855,5.355a5.213,5.213,0,0,1-6.6,2.926c-2.913-.974-4.55-3.673-3.671-6.2.306-.882,1.487-4.35,1.921-5.65.444-1.328,1.278-3.533,1.574-4.417,1.043-3.119,3.643-4.175,6.972-3.062,2.435.814,4.215,3.208,3.076,6.615C46.338,120.188,45.377,123.253,44.918,124.625Z"/><path class="c" d="M46.082,115.8a5.053,5.053,0,0,0-2.82-2.23c-3.329-1.113-5.929-.057-6.972,3.062-.3.884-1.13,3.089-1.574,4.417l-.14.418,10.25,3.429c.033-.1.064-.189.092-.274.459-1.372,1.42-4.437,1.42-4.437A5.237,5.237,0,0,0,46.082,115.8Z"/><path class="c" d="M19.332,122.583a5.13,5.13,0,0,1,3.577,3.114s1.4,2.89,2.009,4.2l.121.263L15.225,134.7c-.066-.151-.128-.286-.182-.4-.588-1.272-1.493-3.449-1.884-4.295-1.379-2.985-.211-5.537,2.975-7.01A5.142,5.142,0,0,1,19.332,122.583Z"/><path class="g" d="M86.278,111.033c3.5,2.8,8.067,8.85,8.067,12.747.3,3.045.54,24.114.3,29.33a3.407,3.407,0,0,1-2.052,2.9c-2.858,1.41-6.8,2.231-15.241,2.231-7.632,0-10.668-.173-14.908-1.653a4.086,4.086,0,0,1-2.765-3.662c-.352-5.159-.108-25.01.079-29.638.127-3.164,4.207-9.722,8.013-12.584"/><path class="c" d="M93.2,124.474c-9.339,0-26.017,0-33.483-.008-.13,4.48-.265,15.021-.2,22.259,7.784,0,26.228,0,35.228,0,.018-7.633-.142-18.789-.335-22.246Z"/><path class="d" d="M44.653,122.735,35.588,119.7a2.015,2.015,0,0,0-2.46,1.4,2.046,2.046,0,0,0,1.4,2.46l9.065,3.032a2.015,2.015,0,0,0,2.46-1.4,2.046,2.046,0,0,0-1.4-2.46Z"/><path class="d" d="M61.242,148.72H94.316c2.574,0,2.578-4,0-4H61.242c-2.573,0-2.578,4,0,4Z"/><path class="d" d="M61.242,126.474H94.316c2.574,0,2.578-4,0-4H61.242c-2.573,0-2.578,4,0,4Z"/><path class="d" d="M84.864,112.448a25.592,25.592,0,0,1,5.034,5.557,12.24,12.24,0,0,1,2.454,5.851c.17,2.719.215,5.446.264,8.17q.115,6.387.124,12.775c0,1.779,0,3.559-.025,5.338-.013.983.291,2.883-.418,3.663a4.053,4.053,0,0,1-1.839.962,19.153,19.153,0,0,1-2.373.675,38.319,38.319,0,0,1-6.74.734c-3.068.121-6.151.109-9.22.015a32.536,32.536,0,0,1-6.045-.626c-1.6-.356-4.114-.657-4.405-2.631a32.571,32.571,0,0,1-.138-4.134c-.067-4.142-.048-8.285-.013-12.427.034-4.091.071-8.183.2-12.272a11.317,11.317,0,0,1,1.74-5.132,21.971,21.971,0,0,1,5.311-6.53,2.068,2.068,0,0,0,.718-2.737,2.012,2.012,0,0,0-2.736-.717,26.112,26.112,0,0,0-5.809,6.439,18.438,18.438,0,0,0-3.087,6.919,33.074,33.074,0,0,0-.2,4.4q-.066,3.156-.1,6.312c-.055,4.663-.087,9.327-.042,13.99.038,3.873-.608,9.184,3.6,11.158,4.511,2.115,9.967,2.027,14.825,2.046,5.142.021,10.769.145,15.676-1.657,2.444-.9,4.685-2.294,4.989-5.125.161-1.5.109-3.039.122-4.543.037-4.4,0-8.806-.055-13.209-.051-3.861-.072-7.733-.3-11.588-.334-5.654-4.413-11.024-8.68-14.5a2.06,2.06,0,0,0-2.829,0,2.016,2.016,0,0,0,0,2.829Z"/><path class="c" d="M65.067,101.937c-.024,2.895-.06,6.849-.06,8.183,2.533,0,22.063-.117,23.2-.117,0-1.372-.121-4.874-.208-7.688a1.814,1.814,0,0,0-1.945-1.576c-4.511.007-15.361.027-19.579.032A1.305,1.305,0,0,0,65.067,101.937Z"/><path class="d" d="M63.067,101.937c-.023,2.728-.058,5.455-.06,8.183a2.029,2.029,0,0,0,2,2c7.733,0,15.467-.111,23.2-.117a2.028,2.028,0,0,0,2-2c-.006-1.54-.064-3.081-.111-4.62-.057-1.832.269-4.094-1.157-5.5-1.215-1.2-2.819-1.143-4.392-1.14l-4.279.007-9.374.016c-2.453,0-7.262-.781-7.757,2.641a2.067,2.067,0,0,0,1.4,2.46,2.015,2.015,0,0,0,2.461-1.4c-.023.158-.736.113-.337.3a2.232,2.232,0,0,0,.7,0l1.386,0,3.48-.006,7.74-.013,3.588-.006a10.363,10.363,0,0,1,2.641.022c-.116-.035-.166-.353-.179-.079-.018.373.024.772.036,1.145q.036,1.157.072,2.313c.039,1.286.083,2.573.088,3.859l2-2c-7.734.006-15.468.114-23.2.117l2,2c0-2.728.037-5.455.06-8.183C67.089,99.363,63.089,99.361,63.067,101.937Z"/><path class="d" d="M42.99,124.093c-.507,1.51-1.031,3.014-1.559,4.516a3.255,3.255,0,0,1-2.223,2.443,3.891,3.891,0,0,1-3.707-.978,2.667,2.667,0,0,1-.657-3.192q1.53-4.513,3.125-9a6.782,6.782,0,0,1,.761-1.722,2.473,2.473,0,0,1,1.13-.864,4.582,4.582,0,0,1,3.832.732,2.66,2.66,0,0,1,.939,1.526,4.539,4.539,0,0,1-.239,2.161q-.674,2.2-1.4,4.38c-.815,2.448,3.047,3.5,3.857,1.064,1.246-3.747,3.181-8.088.117-11.511-3.121-3.486-9.462-3.4-11.879.8a17.434,17.434,0,0,0-1.136,2.821c-.391,1.083-.792,2.163-1.161,3.254-.582,1.717-1.161,3.435-1.75,5.149a6.606,6.606,0,0,0,.8,6.25,8.034,8.034,0,0,0,6.486,3.265,7.084,7.084,0,0,0,6.369-3.948,63.652,63.652,0,0,0,2.153-6.08C47.668,122.711,43.806,121.661,42.99,124.093Z"/><path class="d" d="M23.355,128.748l-7.285,3.366-1.392.643a2.008,2.008,0,0,0-.717,2.736,2.056,2.056,0,0,0,2.736.718l7.392-3.416,1.285-.594a2.008,2.008,0,0,0,.718-2.736,2.057,2.057,0,0,0-2.737-.717Z"/><path class="d" d="M23.191,130.91c.681,1.476,1.344,2.961,2,4.448.058.13.3.713.225.514a3.275,3.275,0,0,1,.21.959,3.19,3.19,0,0,1-.73,2.071,4.051,4.051,0,0,1-3.785,1.355,2.432,2.432,0,0,1-1.375-.743,6.356,6.356,0,0,1-.844-1.57c-1.3-2.876-2.621-5.743-3.871-8.644a4.4,4.4,0,0,1-.437-1.736A2.469,2.469,0,0,1,15,126.275a5.1,5.1,0,0,1,1.872-1.428,3.543,3.543,0,0,1,1.716-.357,3.063,3.063,0,0,1,1.36.513,4.823,4.823,0,0,1,1.283,1.812c.659,1.361,1.32,2.722,1.956,4.095a2.017,2.017,0,0,0,2.737.717,2.046,2.046,0,0,0,.717-2.736c-1.518-3.273-2.95-7.55-7-8.276-4.571-.819-9.627,3.1-8.975,7.918.288,2.133,1.527,4.275,2.4,6.227.752,1.683,1.534,3.353,2.3,5.031a7.044,7.044,0,0,0,4.219,4.19,7.871,7.871,0,0,0,6.969-1.21,7.183,7.183,0,0,0,2.77-7.826,60.72,60.72,0,0,0-2.678-6.054,2.016,2.016,0,0,0-2.736-.718A2.048,2.048,0,0,0,23.191,130.91Z"/><path class="c" d="M285.667,21.15c-1.837,3.536-3.467,7-5.3,10.682,1.139-1.835,1.888-3.037,1.888-3.037,1.068-1.718,6.5-11.007,8.032-13.09a4.351,4.351,0,0,1,5.632-.631c1.416,1.089,2.574,3.7,1.482,5.556-1.968,3.335-4.428,7.546-6.931,11.745,2.96-3.406,6.477-7.279,7.6-8.538a4.135,4.135,0,0,1,6.067-.226,4.434,4.434,0,0,1,.186,5.408c-2.4,2.938-6.976,9.128-10.656,13.573.332-.259.523-.406.523-.406,2.874-2.211,5.075-3.826,6.561-4.786s4.056-2.1,6.076,1.209c1.22,2-1.105,4.052-2.428,5.548-2.507,2.836-10.365,11.456-13.348,14.7-3.085,3.911-6.67,8.821-12.99,15.8a47.727,47.727,0,0,1-3.868,4.862c-.894.474-9.706-6.028-10.511-6.643-1.011-.772-10.511-7.7-10.541-7.971-.024-.221,2.258-6.2,3.023-8.163A80.52,80.52,0,0,0,257.3,41.861c-.057-2.01-.442-5.342.074-7.286a5.2,5.2,0,0,1,3.123-3.863c2.484-1.2,4.639.268,5.815,2.761a24.008,24.008,0,0,1,1.555,5.065l.862-1.678c2.746-5.346,7.679-15.219,10.424-20.564.97-1.888,3.693-3.075,5.151-2.484,2.066.839,2.821,4.041,1.918,6.29Q285.939,20.627,285.667,21.15Z"/><path class="e" d="M278.265,74.444l-23.2-14.763c-.776,2.055-1.932,5.1-1.918,5.23.03.274,9.53,7.2,10.541,7.971.805.615,9.617,7.117,10.511,6.643a47.727,47.727,0,0,0,3.868-4.862Z"/><path class="c" d="M281.735,73.91c1.753,1.644,3.308,3.091,3.667,3.439.728.7,8.724,8.187,9.667,7.819a47.664,47.664,0,0,0,4.407-4.378c7.09-6.2,11.221-10.659,14.74-14.185,3.34-2.879,12.147-10.528,14.967-13.052,1.488-1.332,4.036-3.1,3.057-5.229-1.622-3.523-4.316-2.683-5.894-1.907s-3.962,2.129-7.074,3.991c0,0-.207.123-.566.343,4.171-3.988,9.431-9.6,12.161-12.243a4.432,4.432,0,0,0,.445-5.392,4.135,4.135,0,0,0-6.053-.481c-1.266,1.119-5.209,4.557-8.544,7.595,2.974-3.879,5.907-7.775,8.249-10.859,1.3-1.712.454-4.445-.826-5.691a4.352,4.352,0,0,0-5.667-.028c-1.769,1.89-9.972,12.477-11.233,14.058l-.1-.757c2.575-3.934,3.826-6.281,6.422-10.046,1.158-2.128.78-5.4-1.174-6.47-1.379-.757-4.222.105-5.4,1.868-.481.717-.836,1.235-1.413,2.1"/><path class="e" d="M284.511,68.143l-2.776,5.767c1.753,1.644,3.307,3.091,3.667,3.439.728.7,8.724,8.187,9.667,7.819a48.086,48.086,0,0,0,4.211-4.157C293.89,76.947,289.05,73.18,284.511,68.143Z"/><path class="d" d="M289.644,57.447c-2.452,3.113-4.847,6.268-7.375,9.322-1.719,2.076-3.512,4.084-5.285,6.114-1.47,1.684-2.672,3.577-4.2,5.227l.883-.514a3.1,3.1,0,0,1,.731-.007.927.927,0,0,1-.313-.105c.383.2.063.022-.129-.081s-.38-.2-.567-.307c-.85-.48-1.672-1.012-2.486-1.551-1.744-1.154-3.451-2.365-5.139-3.6q-3.787-2.77-7.544-5.587c-.89-.664-1.782-1.328-2.66-2.009.266.206-.115-.091-.2-.158-.138-.11-.272-.224-.412-.331-.385-.3-.264-.387-.075.042l.273,1.009c-.074.79.021.193.144-.167.179-.522.372-1.039.563-1.556.449-1.216.909-2.428,1.371-3.64a15.37,15.37,0,0,0,1.036-3.412c.26-1.841.514-3.685.7-5.535a73.97,73.97,0,0,0,.2-11.277c-.117-2.283-.427-6.684,2.855-7.028,2.979-.313,3.689,5.91,4.171,7.794.637,2.492,4.5,1.436,3.857-1.064-1.042-4.074-2.109-10.181-7.306-10.7a7,7,0,0,0-5.868,2.7,9.941,9.941,0,0,0-1.77,6.221c-.011,2.486.247,4.96.212,7.45a72.1,72.1,0,0,1-.549,7.657,22.349,22.349,0,0,1-1.154,5.489c-.634,1.655-1.267,3.311-1.872,4.978-.438,1.206-1,2.478.046,3.57a19.349,19.349,0,0,0,2.314,1.836c2.406,1.833,4.847,3.618,7.28,5.414,1.524,1.125,3.04,2.258,4.587,3.352,1.339.946,2.69,1.879,4.077,2.753a12.1,12.1,0,0,0,3.29,1.7c2.293.568,3.8-2.227,4.99-3.77,1.741-2.26,3.642-4.362,5.486-6.542,2.992-3.537,5.8-7.22,8.661-10.859a2.063,2.063,0,0,0,0-2.828,2.012,2.012,0,0,0-2.828,0Z"/><path class="d" d="M295.206,43.913a60.575,60.575,0,0,1,7.036-5.074,2.431,2.431,0,0,1,1.035-.409,1.092,1.092,0,0,1,.734.062,2.393,2.393,0,0,1,1.12,1.16c.105.385-.2.811-.454,1.168a54.211,54.211,0,0,1-4.326,4.868q-2.694,2.983-5.4,5.954-2.647,2.907-5.3,5.805c-1.739,1.893,1.082,4.729,2.828,2.828q5.778-6.291,11.5-12.635c.714-.793,1.416-1.595,2.135-2.383,1.195-1.312,2.559-2.687,2.957-4.481.842-3.8-3.335-7.02-6.848-6.2a11.4,11.4,0,0,0-3.82,2.017c-1.771,1.24-3.492,2.552-5.207,3.869a2.067,2.067,0,0,0-.717,2.736,2.013,2.013,0,0,0,2.736.718Z"/><path class="d" d="M291.678,34.029c2.077-2.392,4.19-4.753,6.31-7.108,1.032-1.145,2.744-3.609,4.513-2.121a2.341,2.341,0,0,1,.449,2.683,2.8,2.8,0,0,1-.548.757q-.516.644-1.023,1.3c-1.719,2.2-3.408,4.425-5.122,6.629-1.943,2.5-3.9,5-6.007,7.357-1.711,1.914,1.109,4.752,2.829,2.828,4.265-4.771,7.966-10.018,11.945-15.022a8.016,8.016,0,0,0,2.025-3.79,6.287,6.287,0,0,0-1.3-5.119c-2.471-2.923-6.857-2.444-9.285.223q-3.857,4.236-7.616,8.559c-1.681,1.935,1.137,4.776,2.828,2.828Z"/><path class="d" d="M283.985,29.8c2.437-3.936,4.687-7.988,7.207-11.873.57-.878.71-1.359,1.76-1.559a2.273,2.273,0,0,1,2.668,1.565c.593,1.485-.509,2.643-1.234,3.876q-1.488,2.531-2.978,5.061c-2.361,4-4.735,8-7.179,11.949-1.357,2.2,2.1,4.207,3.454,2.019,2.518-4.072,4.963-8.189,7.394-12.314q1.668-2.829,3.33-5.661c1.141-1.938,1.842-3.744,1.07-5.993a6.276,6.276,0,0,0-9.595-3.487,9.754,9.754,0,0,0-2.433,2.976c-.789,1.237-1.553,2.491-2.313,3.746-1.545,2.552-3.034,5.14-4.605,7.676-1.359,2.2,2.1,4.206,3.454,2.019Z"/><path class="d" d="M270.451,37.869c2.852-5.556,5.639-11.145,8.463-16.715.632-1.247,1.257-2.5,1.9-3.736A3.231,3.231,0,0,1,283.4,15.66c.227-.005.319.033.595.35a2.984,2.984,0,0,1,.573,1.447c.252,1.648-.812,3.034-1.519,4.432C280.959,26.013,279,30.2,276.878,34.3c-1.18,2.284,2.271,4.309,3.454,2.019,2.186-4.228,4.2-8.543,6.355-12.786.954-1.876,2-3.593,1.9-5.777A6.884,6.884,0,0,0,286.4,12.8c-3-2.526-7.468-.378-9.094,2.715-1.639,3.115-3.191,6.28-4.777,9.422-1.837,3.642-3.669,7.287-5.532,10.916-1.173,2.286,2.277,4.312,3.454,2.019Z"/><path class="d" d="M260.58,61.1a17.723,17.723,0,0,0-1.514,2.316c-.56.941-1.109,1.887-1.674,2.824-.2.328-.39.661-.612.973a2.015,2.015,0,0,0-.2,1.541,2.042,2.042,0,0,0,.919,1.2,2.018,2.018,0,0,0,1.541.2,2.269,2.269,0,0,0,1.2-.919c.459-.646.842-1.355,1.245-2.037.538-.909,1.069-1.823,1.621-2.724a10.689,10.689,0,0,1,.588-.9l-.313.405.034-.042a2.148,2.148,0,0,0,.585-1.414,2,2,0,0,0-2-2,1.96,1.96,0,0,0-1.414.585Z"/><path class="d" d="M266.172,65.22c-.593.7-1.133,1.457-1.687,2.192q-.991,1.315-1.972,2.64c-.226.3-.451.607-.672.915a2.014,2.014,0,0,0-.2,1.541,2,2,0,0,0,2.46,1.4,2.278,2.278,0,0,0,1.195-.92c1.182-1.642,2.4-3.261,3.64-4.863l-.313.405c.125-.161.248-.323.379-.478a2.14,2.14,0,0,0,.586-1.415A2.036,2.036,0,0,0,269,65.22a2.014,2.014,0,0,0-1.414-.586,1.969,1.969,0,0,0-1.414.586Z"/><path class="d" d="M271.428,68.99c-.6.716-1.134,1.5-1.678,2.263q-.962,1.347-1.916,2.7c-.222.315-.444.63-.669.944a2.014,2.014,0,0,0-.2,1.541,2,2,0,0,0,2.46,1.4,2.281,2.281,0,0,0,1.195-.919c1.046-1.457,2.068-2.931,3.118-4.385.236-.326.471-.653.717-.971l-.313.4c.038-.049.077-.1.117-.146a2.144,2.144,0,0,0,.586-1.414,2.032,2.032,0,0,0-.586-1.414,2.012,2.012,0,0,0-1.414-.586,1.964,1.964,0,0,0-1.415.586Z"/><path class="d" d="M293.9,74.244c-.581.513-1.106,1.1-1.644,1.659q-1.147,1.188-2.287,2.385c-.261.273-.522.547-.785.819a2.076,2.076,0,0,0-.586,1.414,2,2,0,0,0,3.415,1.414c1.335-1.377,2.645-2.779,3.99-4.148.237-.241.471-.49.725-.715a2,2,0,0,0-1.414-3.414,2.191,2.191,0,0,0-1.414.586Z"/><path class="d" d="M288.582,69.521c-.532.525-1.006,1.118-1.5,1.683-.69.8-1.374,1.594-2.06,2.393-.239.279-.477.558-.718.835a2.121,2.121,0,0,0-.586,1.414,2.032,2.032,0,0,0,.586,1.414,2.01,2.01,0,0,0,1.414.586,1.983,1.983,0,0,0,1.414-.586c1.208-1.388,2.39-2.8,3.607-4.178.218-.247.432-.5.667-.732a2,2,0,0,0-2.829-2.829Z"/><path class="d" d="M312.8,65.191c-2.8,2.807-5.543,5.662-8.408,8.4-1.95,1.863-3.967,3.644-5.961,5.459-1.651,1.5-3.07,3.242-4.777,4.7l.882-.514c-.11.026,1.3-.056.776-.031-.095,0,.413.232.137.046-.184-.124-.384-.228-.57-.351a15.208,15.208,0,0,1-1.346-1.007c-1.309-1.056-2.572-2.168-3.822-3.292-2.222-2-4.383-4.066-6.563-6.109-1.877-1.76-4.711,1.063-2.828,2.828A153.234,153.234,0,0,0,291.833,85.61a7.7,7.7,0,0,0,2.458,1.47c1.74.476,3.045-1.218,4.153-2.3,1.481-1.451,2.873-2.931,4.417-4.318q2.427-2.176,4.778-4.437c2.718-2.614,5.33-5.331,7.991-8,1.819-1.826-1.008-4.655-2.829-2.828Z"/><path class="d" d="M320.281,52.135c1.571-.938,3.146-1.869,4.745-2.758.521-.289,1.044-.574,1.572-.849.251-.13.5-.258.757-.384.1-.049.2-.1.3-.141-.269.12-.061.02.1-.03.208-.066.412-.131.623-.187a2.749,2.749,0,0,1,.374-.074c-.359.042-.02.019.043.021a1.251,1.251,0,0,1,.7.149,2.7,2.7,0,0,1,.958,1.353c.034.158.086-.042-.037.247a3.044,3.044,0,0,1-.451.651,49.248,49.248,0,0,1-4.944,4.439q-3.078,2.7-6.171,5.384-3.017,2.622-6.042,5.235a2.018,2.018,0,0,0,0,2.828,2.041,2.041,0,0,0,2.829,0q6.5-5.606,12.954-11.27c.8-.7,1.586-1.415,2.389-2.11,1.32-1.144,2.75-2.351,3.289-4.082,1.122-3.605-2.633-7.2-6.123-6.763a11.9,11.9,0,0,0-4.086,1.559c-1.963,1.049-3.88,2.186-5.79,3.328-2.208,1.319-.2,4.778,2.018,3.454Z"/><path class="d" d="M317.893,41.859c2.376-2.167,4.785-4.3,7.2-6.42,1.284-1.129,2.788-2.771,4.339-1.433a2.251,2.251,0,0,1,.312,2.667,11.1,11.1,0,0,1-2.022,2.14c-1.956,1.978-3.884,3.984-5.836,5.966-2.233,2.27-4.478,4.54-6.863,6.652-1.931,1.71.906,4.53,2.829,2.828,4.781-4.233,9.06-9,13.582-13.5a7.724,7.724,0,0,0,2.381-3.622,6.193,6.193,0,0,0-1.178-5.543c-2.379-2.845-6.415-2.433-9-.185q-4.329,3.764-8.571,7.626c-1.907,1.738.928,4.56,2.828,2.828Z"/><path class="d" d="M308.652,39.124c3.1-3.9,6.12-7.858,9.263-11.722,1.079-1.327,2.759-4.033,4.779-2.339a2.612,2.612,0,0,1,.343,3.561c-1.235,1.665-2.5,3.306-3.755,4.958-3.08,4.063-6.168,8.121-9.335,12.116a2.063,2.063,0,0,0,0,2.829,2.014,2.014,0,0,0,2.828,0c3.257-4.109,6.436-8.278,9.6-12.455,1.405-1.851,2.841-3.684,4.213-5.56a6.309,6.309,0,0,0,.194-6.527,6.225,6.225,0,0,0-10.1-1.332c-1.9,2.167-3.653,4.469-5.436,6.73-1.814,2.3-3.6,4.621-5.426,6.913a2.061,2.061,0,0,0,0,2.828,2.013,2.013,0,0,0,2.828,0Z"/><path class="d" d="M307.292,25.417q.5-.75,1.005-1.5a3.273,3.273,0,0,1,.784-.981,3.713,3.713,0,0,1,.845-.509c-.224.1.338-.116.412-.137s.738-.157.358-.108c.19-.025.375-.013.565-.022q.363.027-.01-.012a2,2,0,0,1,.239.063q.213.07-.117-.051c.195.129.216.133.063.01.131.141.28.251.4.406-.21-.274.122.266.154.336.06.124.058.119-.008-.014.046.13.086.261.12.394,0,0,.118.622.077.3a5.081,5.081,0,0,1,.029.75,3.918,3.918,0,0,1-.9,2.324q-1,1.482-1.952,3c-1.315,2.093-2.593,4.208-3.945,6.278a2,2,0,0,0,3.454,2.019C310.143,36,311.36,34,312.6,32.011q.894-1.43,1.825-2.834A9.225,9.225,0,0,0,316,26.051a7.3,7.3,0,0,0-1.273-6.223,5.055,5.055,0,0,0-5.547-1.362,7.648,7.648,0,0,0-3.077,1.789,19.043,19.043,0,0,0-2.26,3.143,2,2,0,1,0,3.454,2.019Z"/><path class="c" d="M63.616,26.516c1.043,8.928,4.772,40.438,5.9,50.124C81.449,75.282,120,70.9,135.74,69.058l-5.893-50.434C129.669,18.645,72.5,25.478,63.616,26.516Z"/><path class="d" d="M61.616,26.516q2.4,20.523,4.836,41.041.535,4.54,1.068,9.083c.114.977.828,2.134,2,2q26.564-3.024,53.124-6.067,6.549-.753,13.1-1.515c.974-.114,2.137-.829,2-2l-4.819-41.246-1.074-9.188c-.113-.973-.829-2.139-2-2q-9.993,1.181-19.984,2.387Q92.6,21.071,75.342,23.127q-5.862.7-11.726,1.389a2.061,2.061,0,0,0-2,2,2.013,2.013,0,0,0,2,2q13.1-1.531,26.2-3.113,16.392-1.954,32.783-3.913,3.626-.433,7.251-.866l-2-2,4.8,41.089,1.092,9.345,2-2q-27.532,3.216-55.079,6.314L69.52,74.64l2,2Q69.1,55.922,66.637,35.209q-.511-4.346-1.021-8.693a2.062,2.062,0,0,0-2-2A2.012,2.012,0,0,0,61.616,26.516Z"/><path class="d" d="M87.293,22.008l-.6-5.164-2,2c7.46-.873,14.907-1.853,22.367-2.728l-2-2c.206,1.705.456,3.405.658,5.111a2.062,2.062,0,0,0,2,2,2.012,2.012,0,0,0,2-2c-.2-1.706-.452-3.406-.658-5.111-.118-.973-.826-2.138-2-2-7.46.875-14.907,1.855-22.367,2.728-.974.114-2.137.829-2,2l.6,5.164a2.061,2.061,0,0,0,2,2,2.013,2.013,0,0,0,2-2Z"/><path class="d" d="M73.155,36.471c14.066-1.645,28.117-3.415,42.172-5.146,2.166-.266,4.331-.536,6.5-.79a2.061,2.061,0,0,0,2-2,2.013,2.013,0,0,0-2-2c-12.314,1.442-24.611,3.04-36.919,4.533q-5.874.711-11.751,1.4a2.063,2.063,0,0,0-2,2,2.012,2.012,0,0,0,2,2Z"/><path class="h" d="M103.934,46.986l-.05.006-.876-7.493a1.086,1.086,0,0,0-1.22-.952c-.78.1-1.687.23-3.039.409-1.357.138-2.27.223-3.052.3a1.082,1.082,0,0,0-.969,1.2c.159,1.359.447,3.827.75,6.42a1.088,1.088,0,0,1-.954,1.207l-6.774.791A1.086,1.086,0,0,0,86.8,50.1c.1.78.231,1.687.41,3.039.137,1.357.222,2.27.3,3.052a1.086,1.086,0,0,0,1.208.968l6.629-.774a1.088,1.088,0,0,1,1.207.954l.75,6.42a1.08,1.08,0,0,0,1.219.945c.78-.1,1.687-.23,3.039-.41,1.357-.137,2.27-.222,3.052-.3a1.081,1.081,0,0,0,.969-1.2c-.159-1.358-.447-3.826-.75-6.419a1.088,1.088,0,0,1,.954-1.207l6.716-.785a1.086,1.086,0,0,0,.952-1.22c-.1-.78-.23-1.687-.41-3.039-.137-1.357-.222-2.269-.3-3.052a1.081,1.081,0,0,0-1.2-.969Z"/><path class="h" d="M183.637,260.635c.031-1.606.225-5.217,1.727-7.094,1.243-1.554,2.928-2.083,5.123-2.083,10.178,0,45.066-.547,59.391-.486,2.606.011,13.183-.28,15.709.076a5.176,5.176,0,0,1,3.069,1.44A5.686,5.686,0,0,1,270,255.812c.641,5.782.431,11.81.535,17.625q.165,9.091.065,18.184c-.032,2.642-.025,5.3-.164,7.935-.125,2.352.237,5.168-.713,7.371a7.2,7.2,0,0,1-4.2,3.657c-3.725,1.394-8.174.969-12.107.974l-16.235.018L217.3,311.6l-17.413.019q-4.335,0-8.67.008a7.477,7.477,0,0,1-6.606-3.979c-.863-1.614-1.086-5.916-1.3-8.245C182.976,295.66,183.449,270.432,183.637,260.635Z"/><path class="i" d="M229.049,276.022a6.044,6.044,0,0,1,.771-2.861,4.354,4.354,0,0,1,2.693-1.625c4.009-.206,24.174.127,26.1.195a3.131,3.131,0,0,1,2.349,1.167,4.358,4.358,0,0,1,.9,2.437c.241,2.762.056,17.9,0,19.158-.046,1.123.219,3.176-.732,4.349a4.992,4.992,0,0,1-2.452,1.556c-1.755.593-21.191.134-23.372.137-1.086,0-3.629-.28-5-1.785-1.293-1.419-1.146-2.937-1.224-4.05C228.963,292.912,228.9,280.993,229.049,276.022Z"/><path class="j" d="M183.083,257.155c-1.6-.052-4.262.051-6.1.051-.382,0-.35,19.427-.086,19.543.105.047,4.326,0,5.5,0"/><path class="d" d="M185.576,260.513a11.624,11.624,0,0,1,1.027-5.444c.951-1.642,2.723-1.731,4.432-1.734,2.7,0,5.4-.03,8.1-.055q12.079-.115,24.159-.261c7.8-.082,15.6-.167,23.4-.173q4.439,0,8.874-.065c1.908-.024,3.816-.043,5.724-.028a24.663,24.663,0,0,1,4.113.157c2.769.5,2.649,3.521,2.8,5.848.2,3.105.218,6.217.23,9.327.023,6.167.162,12.332.142,18.5-.01,3.209-.029,6.42-.091,9.628-.029,1.477-.128,2.954-.14,4.431a24.5,24.5,0,0,1-.153,4.082c-.96,5.412-8.618,4.81-12.686,4.736-12.582-.229-25.187,0-37.77.015l-19.115.022-4.576,0a18.077,18.077,0,0,1-4.089-.131,5.309,5.309,0,0,1-3.9-3.522,36.786,36.786,0,0,1-.892-8.661c-.061-2.982-.034-5.966-.011-8.949.06-7.8.195-15.6.34-23.4q.039-2.162.081-4.325c.05-2.575-3.95-2.575-4,0-.15,7.844-.292,15.688-.381,23.533-.072,6.364-.3,12.763.4,19.1.241,2.194.48,4.48,1.813,6.319a9.549,9.549,0,0,0,6.433,3.93c3.084.426,6.39.1,9.5.1l9.935-.011,40.634-.047c3.042,0,6.092.112,9.132.042,2.957-.067,6.116-.406,8.732-1.9a8.579,8.579,0,0,0,4.341-6.2,28.252,28.252,0,0,0,.227-4.323c0-1.7.115-3.4.145-5.094q.18-9.97.029-19.947c-.09-6.45.13-12.959-.482-19.388-.3-3.178-1.277-6.007-4.488-7.241a14.518,14.518,0,0,0-4.916-.619c-3.831-.075-7.663.029-11.493.072-7.325.082-14.652.047-21.977.118q-13.233.127-26.465.284c-3.306.034-6.611.068-9.917.085a23.732,23.732,0,0,0-4.855.263,7.4,7.4,0,0,0-5.327,4.66,18.152,18.152,0,0,0-1.02,6.261C181.518,263.088,185.518,263.088,185.576,260.513Z"/><path class="d" d="M183.083,255.155c-2.015-.055-4.089-.072-6.1.051-1.547.095-1.989,1.261-2.1,2.551-.171,1.925-.145,3.879-.164,5.809q-.041,4,0,8.006c.017,1.658-.028,3.347.14,5a2.349,2.349,0,0,0,.626,1.594,2.955,2.955,0,0,0,2.274.606c1.547.006,3.094-.019,4.641-.021,2.574,0,2.578-4,0-4-1.013,0-2.027.012-3.04.017-.534,0-1.068.006-1.6,0-.3,0-1.328-.141-.328.051l.883.514a1.843,1.843,0,0,1,.538,1.166c0-.159-.025-.329-.033-.488-.026-.476-.039-.954-.051-1.431-.038-1.518-.052-3.037-.061-4.556-.019-3.344-.019-6.692.074-10.035.017-.61.035-1.22.073-1.829.012-.195.053-.4.047-.6-.007-.251-.113.575-.041.317.127-.455-.221.485-.468.742l-.882.514c-.563.193.135.066.309.064l.595-.009c.571-.009,1.142-.021,1.713-.031.986-.017,1.974-.033,2.96-.006,2.575.069,2.574-3.931,0-4Z"/><path class="d" d="M227.488,236.757c-9.2,3.064-18.385,6.179-27.574,9.281l-5.249,1.771c-2.427.818-1.386,4.683,1.063,3.857q13.136-4.426,26.269-8.857,3.276-1.1,6.554-2.195c2.43-.81,1.389-4.674-1.063-3.857Z"/><path class="d" d="M257.036,278.175c-7.94,0-15.878-.231-23.818-.235-2.574,0-2.578,4,0,4,7.94,0,15.878.23,23.818.235,2.574,0,2.578-4,0-4Z"/><path class="d" d="M256.9,284.958c-7.884,0-15.768-.159-23.653-.161-2.573,0-2.578,4,0,4,7.885,0,15.769.158,23.653.161,2.574,0,2.578-4,0-4Z"/><path class="d" d="M256.479,291.955c-4.787,0-9.572-.162-14.359-.165a2,2,0,0,0,0,4c4.787,0,9.572.162,14.359.165a2,2,0,0,0,0-4Z"/><path class="d" d="M252.1,276.28c0,6.83-.117,13.66-.119,20.49,0,2.574,4,2.578,4,0,0-6.83.116-13.66.119-20.49,0-2.574-4-2.578-4,0Z"/><path class="d" d="M243.589,276.306c0,6.821-.1,13.642-.1,20.464,0,2.574,4,2.578,4,0,0-6.822.1-13.643.1-20.464,0-2.574-4-2.578-4,0Z"/><path class="d" d="M235.171,276.561c0,4.269-.058,8.537-.059,12.806a2,2,0,0,0,4,0c0-4.269.058-8.537.059-12.806a2,2,0,0,0-4,0Z"/><path class="d" d="M196.238,262.426c16.567.017,33.146-.149,49.711.091,4.181.06,8.361.159,12.542.163,2.574,0,2.578-4,0-4-7.523-.007-15.044-.206-22.567-.214l-25.3-.025-14.386-.015c-2.574,0-2.578,4,0,4Z"/><path class="c" d="M200.078,293.228a8.914,8.914,0,0,1-6.674-8.976,9.225,9.225,0,0,1,9.19-8.942c5.112,0,9.328,4,9.328,8.307,0,3.321-.77,6.471-3.089,7.99"/><path class="d" d="M200.61,291.3a6.834,6.834,0,0,1-4.949-4.965,6.987,6.987,0,0,1,1.308-6.311,7.291,7.291,0,0,1,6.73-2.647,7.567,7.567,0,0,1,5.855,4.366c.844,2.2.48,6.613-1.73,8.138a2.053,2.053,0,0,0-.718,2.737,2.018,2.018,0,0,0,2.737.717c3.474-2.4,4.606-7.292,3.923-11.3-.659-3.865-3.853-6.888-7.457-8.123a11.393,11.393,0,0,0-11.169,2.258,11.111,11.111,0,0,0,4.407,18.984c2.48.707,3.538-3.151,1.063-3.857Z"/><path class="c" d="M206.21,285.887c.74,2.3,2.476,6.317,3.736,9.067,3.8,0,11.029-.032,14.324,0,1.265.012-2.552,6.931-4.156,6.927-5.185-.012-9.116-.05-14.2-.058-1.047,0-1.455-.943-1.88-1.9-1.016-2.284-3.787-9.462-4.668-12.484"/><path class="d" d="M204.281,286.419a93.915,93.915,0,0,0,3.938,9.544,1.967,1.967,0,0,0,1.727.991q3.766,0,7.534-.012a53.073,53.073,0,0,1,6.862.021l-1.009-.273a1.706,1.706,0,0,1-.811-1.333q.083-.5.014-.153a2.822,2.822,0,0,0-.2.648,2.886,2.886,0,0,1-.223.5c-.107.212-.214.425-.327.634a11.61,11.61,0,0,1-1.858,2.711c-.087.091-.178.178-.272.263q-.273.232.018-.01c-.2.112-.16.1.124-.028q.721-.065-.162-.038c-1.067-.038-2.141-.007-3.209-.012q-3.219-.015-6.439-.033l-3.128-.011h-.94q.471.284.291.009a10.084,10.084,0,0,1-.511-1.07c-.162-.368-.259-.606-.483-1.156q-.442-1.089-.867-2.184c-1.093-2.8-2.194-5.627-3.049-8.513-.73-2.463-4.592-1.414-3.858,1.063,1.089,3.673,2.52,7.272,3.966,10.817.717,1.757,1.38,4.155,3.369,4.832a12.593,12.593,0,0,0,3.9.209q2.154.007,4.307.02l3.89.02a15.386,15.386,0,0,0,3.991-.1c1.466-.409,2.522-1.892,3.337-3.071,1.289-1.865,4.438-7.5-.039-7.751-4.708-.264-9.494,0-14.209,0l1.727.99a84.086,84.086,0,0,1-3.535-8.589c-.8-2.433-4.665-1.391-3.857,1.064Z"/><path class="c" d="M317.365,102.9h57.727a6.66,6.66,0,0,1,6.66,6.66v26.7a6.66,6.66,0,0,1-6.66,6.66H317.366a6.66,6.66,0,0,1-6.66-6.66v-26.7A6.659,6.659,0,0,1,317.365,102.9Z" transform="translate(170.449 445.537) rotate(-80.962)"/><path class="d" d="M326.931,157.828l20.84,3.315c2.848.453,6.293,1.458,9.153.787,3.944-.924,6.052-4.257,6.648-8l3.165-19.9,4.189-26.333,1.292-8.119c.077-.486.159-.971.231-1.457A8.861,8.861,0,0,0,370,90.313c-2.472-2.4-5.9-2.537-9.107-3.048l-13.245-2.106c-2.808-.447-5.614-.922-8.427-1.341a8.783,8.783,0,0,0-10.2,7.249c-.952,5.811-1.85,11.632-2.776,17.447l-4.268,26.834-1.509,9.485c-.333,2.1-.852,4.257-.408,6.371a8.718,8.718,0,0,0,6.873,6.624c2.516.468,3.6-3.386,1.063-3.857a4.918,4.918,0,0,1-3.332-2.021,4.513,4.513,0,0,1-.809-2.8c0-.141.059-.749.009-.349.048-.387.122-.772.184-1.157L325.2,140.4l3.959-24.886,3.355-21.092c.278-1.751.36-3.835,1.586-5.208a4.676,4.676,0,0,1,3.481-1.564c.128,0,.957.067.516.012.02,0,.039.007.059.009.108.015.216.034.323.052,1.169.191,2.339.372,3.508.558l21.954,3.492a5.283,5.283,0,0,1,3.948,2.243,4.67,4.67,0,0,1,.673,1.739,6.182,6.182,0,0,1,.041,1.1c0,.172-.044.5,0,.176-.014.115-.036.229-.054.343-.315,1.916-.61,3.834-.915,5.751l-3.8,23.88-3.612,22.712c-.228,1.43-.427,2.868-.683,4.292a4.778,4.778,0,0,1-4.654,4.168c-.051,0-.994-.072-.52-.013l-.067-.011c-.115-.015-.229-.036-.343-.054l-1.358-.216L329.9,154.275l-1.909-.3a2.062,2.062,0,0,0-2.46,1.4A2.014,2.014,0,0,0,326.931,157.828Z"/><path class="d" d="M342.672,86.381A1.34,1.34,0,0,1,343,87.615l-.207,1.3c-.3,1.87.347,3.528,1.442,3.7,1.888.305,4.718.762,6.629,1.073s4.746.741,6.635,1.037c1.1.171,2.223-1.2,2.521-3.074l.207-1.3a1.423,1.423,0,0,1,.652-1.077"/><path class="d" d="M341.258,87.8c.216.271-.22-.354-.208-.345a.176.176,0,0,1-.008-.153l-.079.5a11.257,11.257,0,0,0-.23,2.328,5.092,5.092,0,0,0,1.584,3.711c1.107.93,2.735.938,4.107,1.159,1.345.218,2.689.44,4.035.653,1.362.215,2.725.425,4.087.639,1.3.2,2.845.7,4.125.309a5.021,5.021,0,0,0,2.969-3.239,10.044,10.044,0,0,0,.448-2.014l.072-.452q.111-.426.026-.17c.048-.007-.584.5-.293.288a2.063,2.063,0,0,0,.717-2.737,2.013,2.013,0,0,0-2.736-.717,3.888,3.888,0,0,0-1.643,2.724,9.451,9.451,0,0,1-.35,1.742,2.452,2.452,0,0,1-.327.635c-.064.122-.084.146-.061.072q-.274.267-.1.09c-.023-.006.422-.106.4-.046a8.962,8.962,0,0,1-.91-.143l-1.862-.291c-1.248-.2-2.5-.386-3.744-.586-1.264-.2-2.527-.41-3.791-.614l-1.7-.275a5.14,5.14,0,0,0-1.014-.164l-.178-.043q.652.448.263.095.168.183-.04-.134l.028.031a2.486,2.486,0,0,1-.12-.813,8.586,8.586,0,0,1,.175-1.471,3.911,3.911,0,0,0-.813-3.393,2.011,2.011,0,0,0-2.828,0,2.048,2.048,0,0,0,0,2.828Z"/><path class="d" d="M349.4,149.783l-12.071-1.922-2.007-.32a2.063,2.063,0,0,0-2.46,1.4,2.016,2.016,0,0,0,1.4,2.46q6.056.963,12.111,1.929l1.967.313a2.061,2.061,0,0,0,2.46-1.4,2.015,2.015,0,0,0-1.4-2.46Z"/><path class="e" d="M113.719,200.649c.036,3.391.282,9.134.4,13.583a3.49,3.49,0,0,1-2.165,3.133c-4.182,2.12-8.917,2.427-13.53,2.632-6.112.271-12.9.3-18.749-1.674a4.192,4.192,0,0,1-3-3.891c-.025-4.615-.027-10.686-.065-14.271"/><path class="h" d="M94.7,192.788c-8.046.084-17.906,2.274-17.857,7.038.057,5.408,12.54,6.843,19.306,6.773,7.287-.077,17.552-1.227,17.494-6.835C113.593,194.677,101.825,192.713,94.7,192.788Z"/><path class="d" d="M111.719,200.649c.05,4.139.245,8.276.369,12.413.021.7.194,1.426-.3,1.987a6.573,6.573,0,0,1-2.769,1.4,27.385,27.385,0,0,1-6.469,1.293,87.607,87.607,0,0,1-13.82.244,35.658,35.658,0,0,1-6.866-1.092c-1.636-.441-3.207-.884-3.191-2.839.038-4.629-.016-9.265-.063-13.894-.025-2.572-4.025-2.578-4,0,.047,4.693-.028,9.39.064,14.082.114,5.792,6.377,6.829,10.958,7.431a78.62,78.62,0,0,0,16.05.14,35.19,35.19,0,0,0,7.784-1.308c2.269-.7,4.991-1.691,6.118-3.967a7.784,7.784,0,0,0,.493-3.877q-.064-2.079-.138-4.156c-.089-2.618-.188-5.237-.219-7.857-.031-2.572-4.031-2.579-4,0Z"/><path class="d" d="M94.7,190.788a43.7,43.7,0,0,0-11.691,1.583c-2.782.822-6.143,2.169-7.541,4.921-3.245,6.384,5.478,9.491,10.078,10.371a55.734,55.734,0,0,0,19.685.182c2.972-.51,6.332-1.387,8.526-3.6a5.933,5.933,0,0,0,.978-7.4c-1.862-2.78-5.512-4-8.6-4.761a46.8,46.8,0,0,0-11.431-1.3c-2.573.017-2.578,4.017,0,4a43.708,43.708,0,0,1,8.131.678,20.5,20.5,0,0,1,7.27,2.4,4.616,4.616,0,0,1,.96.76,1.768,1.768,0,0,1,.22.234,2.077,2.077,0,0,1,.162.252c.182.3.007-.046.085.137a1.787,1.787,0,0,1-.222,1.707c-1.023,1.516-3.58,2.269-5.548,2.714a49.5,49.5,0,0,1-16.251.574,28.885,28.885,0,0,1-7.593-1.737,8.16,8.16,0,0,1-2.339-1.369c-.385-.366-.372-.316-.561-.685a2.279,2.279,0,0,1-.171-.631,1.523,1.523,0,0,1,.288-.889,5.493,5.493,0,0,1,.863-.87,12.4,12.4,0,0,1,3.914-1.79A39.239,39.239,0,0,1,94.7,194.788C97.275,194.751,97.282,190.75,94.7,190.788Z"/><path class="c" d="M124.886,243.568c-9.725-1.171-21.971-.087-22.665,5.671-.787,6.537,14.052,10.242,22.23,11.227,8.806,1.061,21.378,1.3,22.195-5.482C147.386,248.836,133.493,244.605,124.886,243.568Z"/><path class="c" d="M146.71,256.217c-.493,4.1-4.521,39.442-5.079,44.83a4.252,4.252,0,0,1-3.109,3.439c-5.383,1.9-11.146,1.519-16.746,1.037-7.42-.639-15.622-1.682-22.365-4.987a5.1,5.1,0,0,1-3.008-5.17c.7-5.574,5.074-41.274,5.6-45.606"/><path class="d" d="M124.886,241.568a53.065,53.065,0,0,0-13.775.062c-3.475.5-7.564,1.535-9.748,4.529-1.939,2.66-1.236,6,.871,8.307,2.374,2.6,6,4.045,9.255,5.155a65.582,65.582,0,0,0,23.557,3.367c3.525-.153,7.58-.589,10.514-2.745a6.825,6.825,0,0,0,2.4-8.574c-1.787-3.573-6.134-5.49-9.648-6.853a56.175,56.175,0,0,0-13.426-3.248,2.011,2.011,0,0,0-2,2,2.05,2.05,0,0,0,2,2,53.9,53.9,0,0,1,10.172,2.322c2.807.925,5.9,2.081,8.119,4.111a5.655,5.655,0,0,1,1.023,1.143,2.664,2.664,0,0,1,.471,1.121,3.015,3.015,0,0,1-.857,2.244c-1.8,1.772-5.055,2.224-7.625,2.413a61.813,61.813,0,0,1-20.106-2.1,32.6,32.6,0,0,1-8.96-3.526,8.774,8.774,0,0,1-2.408-2.093,2.278,2.278,0,0,1-.5-1.14c-.088-.4-.017-.127-.01-.04a2.4,2.4,0,0,1-.009-.389c0-.051.031-.382-.013-.074a3.352,3.352,0,0,1,.122-.5,3.583,3.583,0,0,1,.274-.541,2.792,2.792,0,0,1,.514-.57,6.592,6.592,0,0,1,1.6-1.014,17.712,17.712,0,0,1,4.986-1.372,49,49,0,0,1,13.212.006,2.011,2.011,0,0,0,2-2A2.047,2.047,0,0,0,124.886,241.568Z"/><path class="d" d="M144.71,256.217c-.866,7.212-1.663,14.433-2.483,21.651q-.8,7-1.584,14.01c-.334,2.979-.536,6-.991,8.968-.046.3.085-.223-.04.163a2.1,2.1,0,0,1-.3.653,3.46,3.46,0,0,1-1.758,1.044,23.8,23.8,0,0,1-5.729,1.11,70.979,70.979,0,0,1-11.918-.463,83.536,83.536,0,0,1-11.147-1.707,47.071,47.071,0,0,1-5.333-1.566c-1.438-.522-3.39-1.075-4.392-2.314-1.023-1.264-.566-2.912-.384-4.386q.288-2.325.574-4.651.834-6.765,1.663-13.53,1.493-12.165,2.977-24.33L104,249.76a2.011,2.011,0,0,0-2-2,2.047,2.047,0,0,0-2,2Q98.61,261.283,97.181,272.8q-.89,7.25-1.781,14.5-.333,2.7-.667,5.41a14.453,14.453,0,0,0-.22,4.615c.8,3.951,4.664,5.473,8.049,6.682a58.289,58.289,0,0,0,11.512,2.661c4.062.571,8.17.985,12.267,1.178a33.462,33.462,0,0,0,12.494-1.359,7.309,7.309,0,0,0,4-2.909,7.189,7.189,0,0,0,.864-3.155c.144-1.355.295-2.709.445-4.063q.747-6.729,1.513-13.455,1.444-12.753,2.915-25.5.069-.594.14-1.189a2.011,2.011,0,0,0-2-2,2.049,2.049,0,0,0-2,2Z"/><path class="d" d="M121.5,253.354c.873.214,1.752.407,2.637.564a20.7,20.7,0,0,0,3.535.394,2,2,0,0,0,0-4,14.532,14.532,0,0,1-1.853-.142l.531.071a36.381,36.381,0,0,1-3.786-.744,2,2,0,1,0-1.064,3.857Z"/><path class="d" d="M132.994,305.142c.042-1.958-1.841-3.806-2.877-5.311-.293-.426-.572-.858-.829-1.307-.133-.233-.3-.314-.141-.267-.169-.052.021-.251-.024.075l-.043.293q-.187.414-.007.1l-.093.12c.089-.106.183-.208.279-.308.423-.414.857-.811,1.308-1.195,1.275-1.084,3.359-2.283,3.8-4.02.589-2.338-2.094-4.752-3.257-6.508-.174-.262-.615-1.047-.643-1.064-.219-.134.02-.195-.065.151l-.021.139q-.191.423-.009.115l-.093.131c.09-.1.183-.2.28-.3.172-.157.337-.321.512-.475.47-.415.965-.8,1.458-1.19,1.3-1.023,3.508-2.286,3.469-4.19-.041-2-1.986-3.877-3.035-5.432a10.412,10.412,0,0,1-.778-1.277c-.255-.529-.049-.072-.036-.068l-.049-.163a1.063,1.063,0,0,1-.018.531c-.053.355.057.127-.1.221a3.262,3.262,0,0,0,.439-.468c.428-.43.9-.823,1.36-1.213,1.54-1.3,4.1-2.794,3.57-5.163-.55-2.479-2.644-4.779-4.043-6.818-1.446-2.11-4.914-.112-3.454,2.019.705,1.027,1.427,2.043,2.111,3.085.293.447.581.9.852,1.356a8.944,8.944,0,0,1,.64,1.265c-.032.008.05-1.478.158-.891.019.1.265-.28-.016.014-.306.32-.636.615-.971.905-.824.712-1.685,1.379-2.5,2.107-1.613,1.449-2.5,3-1.5,5.109.86,1.8,2.277,3.279,3.288,4.988.193.326.255.223.093.169l.034.134q.46-1.682.091-1.032c-.014,0,.278-.255-.116.077-.161.136-.313.288-.473.426-.808.7-1.676,1.327-2.507,2-1.527,1.232-3.106,2.649-2.438,4.8a10.12,10.12,0,0,0,1.56,2.759,23.209,23.209,0,0,0,2.023,2.816c.016.016.221.407.232.408-.219-.01.259-.877.292-.9a5.753,5.753,0,0,0-.72.712c-.795.722-1.65,1.377-2.463,2.079-1.86,1.6-3.045,3.212-1.8,5.65a24.3,24.3,0,0,0,2.01,3.014c.329.461.664.921.96,1.4.112.181.226.364.32.556.12.245-.031.073-.025-.177-.056,2.575,3.944,2.575,4,0Z"/><path class="f" d="M298.079,228.125c4.628-.609,14.615.122,18.39.609,7.632-1.957,18.362-3.929,25.859-6.345a14.2,14.2,0,0,1,7.348-.272,8.188,8.188,0,0,1,5.277,5.115,15.219,15.219,0,0,1,1.218,8.85,6.552,6.552,0,0,1-4.3,5.439c-7.75,2.667-13.134,4.3-20.785,6.7-3.535,1.107-6.211,2.232-9.255,3.125-2.314,2.355-9.378,6.617-15.345,9.3"/><path class="c" d="M300.077,262.314a13.784,13.784,0,0,1-8.424-3.645,19.534,19.534,0,0,1-5.7-11.888c-.89-6.827,1.615-14.668,7.8-17.687a11.256,11.256,0,0,1,5.079-.731,12,12,0,0,1,7.761,3.683,19.824,19.824,0,0,1,4.73,7.628,21.515,21.515,0,0,1,1.05,12.787c-1.1,4.2-4.143,8.023-8.278,9.355A11.065,11.065,0,0,1,300.077,262.314Z"/><path class="d" d="M300.077,260.314c-11.663-.847-15.216-16.985-9.75-25.519a9.412,9.412,0,0,1,5.27-4.22,9.838,9.838,0,0,1,7.521,1.247c5.063,3.191,7.672,9.988,7.805,15.765.146,6.369-3.846,12.986-10.846,12.727-2.574-.1-2.57,3.9,0,4,7.47.276,13.39-5.72,14.549-12.855,1.2-7.38-1.478-16.389-7.22-21.375a14.217,14.217,0,0,0-9.466-3.751,12.2,12.2,0,0,0-8.988,3.809c-4.511,4.616-5.806,11.56-4.842,17.759,1.292,8.313,7.164,15.774,15.967,16.413C302.645,264.5,302.634,260.5,300.077,260.314Z"/><path class="d" d="M298.079,230.125a57.706,57.706,0,0,1,10.037-.081q2.678.136,5.348.373a12.7,12.7,0,0,0,4.417.023c4.223-1.053,8.482-1.95,12.724-2.92s8.381-2.114,12.553-3.292c3.041-.859,6.909-.87,8.954,1.933a13.022,13.022,0,0,1,2.048,5.093,11.532,11.532,0,0,1-.22,5.662c-.688,1.865-2.218,2.548-3.974,3.146q-3.339,1.137-6.694,2.222c-4.456,1.442-8.944,2.784-13.4,4.224-2.419.781-4.789,1.7-7.208,2.486a6.944,6.944,0,0,0-2.806,1.459,20.381,20.381,0,0,1-1.839,1.421,76.9,76.9,0,0,1-12.546,7.041,2.014,2.014,0,0,0-.717,2.736,2.047,2.047,0,0,0,2.736.718A85.756,85.756,0,0,0,316.7,257.5a34.831,34.831,0,0,0,6.541-4.737l-.883.514c4.082-1.217,8.067-2.756,12.134-4.026,3.957-1.235,7.914-2.468,11.851-3.761,3.729-1.225,8.162-2,10.484-5.477,2.009-3.01,1.875-7.641.9-11s-2.72-6.646-6.016-8.2c-3.189-1.508-6.951-1.272-10.257-.238-7.656,2.4-15.575,3.822-23.363,5.7a7.343,7.343,0,0,1-2.223.389c-.66-.045-1.32-.143-1.98-.2q-2.622-.244-5.252-.384a59.46,59.46,0,0,0-10.557.053,2.064,2.064,0,0,0-2,2,2.012,2.012,0,0,0,2,2Z"/><path class="d" d="M324.042,252.152c1.371-1.967,1.326-4.716,1.118-7a43.589,43.589,0,0,0-.87-5.76,29.385,29.385,0,0,0-2.237-6.106,13.72,13.72,0,0,0-4.331-5.547,2,2,0,0,0-2.019,3.453c1.237.849,2.29,2.817,3.016,4.364a24.629,24.629,0,0,1,1.714,4.9,36.107,36.107,0,0,1,.7,4.417c.176,1.749.378,3.938-.545,5.262a2.018,2.018,0,0,0,.717,2.736,2.042,2.042,0,0,0,2.737-.717Z"/><path class="d" d="M330.974,237.168c-.238-.874-.535-1.732-.767-2.608l-1.4,2.46c1.573-.48,3.183-.854,4.777-1.256,1.465-.37,2.929-.751,4.4-1.088l-2.46-1.4c.35.961.631,1.949.944,2.923a2,2,0,1,0,3.857-1.064c-.312-.973-.594-1.961-.944-2.922a2.054,2.054,0,0,0-2.46-1.4c-1.473.337-2.937.718-4.4,1.087-1.595.4-3.2.777-4.778,1.257a2.038,2.038,0,0,0-1.4,2.46c.232.876.529,1.734.767,2.609a2,2,0,0,0,3.857-1.064Z"/><path class="d" d="M295.76,237.826c-.79-.371-1.62-.634-2.441-.926a2.244,2.244,0,0,0-1.541.2,2.238,2.238,0,0,0-.919,1.195l-.071.532a1.991,1.991,0,0,0,.273,1.01l.312.4a2,2,0,0,0,.883.515c.593.211,1.2.4,1.778.642l-.477-.2c.062.026.123.054.185.082a1.487,1.487,0,0,0,.743.238,1.526,1.526,0,0,0,.8-.036,2.238,2.238,0,0,0,1.195-.919l.2-.478a2.018,2.018,0,0,0,0-1.063l-.2-.478a2.008,2.008,0,0,0-.718-.718Z"/><path class="d" d="M294.971,244.789c-.708.22-1.4.477-2.1.722a2.065,2.065,0,0,0-1.4,2.46,2.027,2.027,0,0,0,.92,1.2,1.988,1.988,0,0,0,1.541.2c.7-.245,1.4-.5,2.1-.722a2.09,2.09,0,0,0,1.195-.919,1.487,1.487,0,0,0,.238-.743,1.526,1.526,0,0,0-.036-.8,2,2,0,0,0-2.46-1.4Z"/><path class="d" d="M297.645,250.8c-.454.772-.955,1.519-1.369,2.313a2.058,2.058,0,0,0,.718,2.736,2,2,0,0,0,2.736-.717c.414-.795.915-1.541,1.369-2.313a1.486,1.486,0,0,0,.237-.743,2.055,2.055,0,0,0-.955-1.993,2.022,2.022,0,0,0-1.541-.2,2.1,2.1,0,0,0-1.195.919Z"/><path class="d" d="M301.035,240.11a2.727,2.727,0,0,0-1.2.73,3.272,3.272,0,0,0-.7,1.238,3.959,3.959,0,0,0-.159,1.048,5.348,5.348,0,0,0,.1,1.095,2.874,2.874,0,0,0,.147.553,4.278,4.278,0,0,0,.478.98,5.166,5.166,0,0,0,1.6,1.545,3.431,3.431,0,0,0,1.513.456.973.973,0,0,0,.143,0,3.074,3.074,0,0,0,.616-.084,1.987,1.987,0,0,0,.69-.307,1.52,1.52,0,0,0,.561-.515,1.5,1.5,0,0,0,.358-.68,2.045,2.045,0,0,0-.2-1.542,2.023,2.023,0,0,0-1.2-.919,1.936,1.936,0,0,0-1.542.2.666.666,0,0,1-.116.073l.478-.2a.675.675,0,0,1-.164.044l.532-.071a.891.891,0,0,1-.179,0l.532.071a1.272,1.272,0,0,1-.307-.09l.478.2a2.294,2.294,0,0,1-.435-.264l.4.313a3.318,3.318,0,0,1-.568-.574l.313.405a2.626,2.626,0,0,1-.312-.525l.2.477a2.888,2.888,0,0,1-.18-.678l.072.531a2.774,2.774,0,0,1,0-.711l-.071.531a1.828,1.828,0,0,1,.1-.391l-.2.478a1.139,1.139,0,0,1,.145-.251l-.313.4a.972.972,0,0,1,.12-.12l-.405.313a.754.754,0,0,1,.145-.085l-.477.2.065-.023a2.112,2.112,0,0,0,1.195-.919,2.044,2.044,0,0,0,.2-1.541,2,2,0,0,0-2.461-1.4Z"/><path class="j" d="M208.492,92.678c-1.561-4.6-5.218-10.066-7.662-10.392a64.049,64.049,0,0,0-10.728-.8c-2.6,0-9.163.218-11.422,1.1s-4.864,6.742-6.153,9.566l6.494-.084c.625-1.04,2.43-4.075,3.157-4.306,1.526-.494,6.3-.473,8.059-.473a55.711,55.711,0,0,1,7.629.357c.9.095,3.218,3.586,4.14,4.877Z"/><path class="d" d="M147.389,203.3a8,8,0,0,0,2.845,4.722,10.6,10.6,0,0,0,5.689,2.105,543.907,543.907,0,0,0,67.247.853c3.412-.142,7.775-1.4,8.761-2.161a6.893,6.893,0,0,0,3.186-5.007"/><path class="d" d="M238.332,200.091c5.66,0,14.386-4.905,14.81-9.527-3.4,2.83-8.773.754-14.81-.095"/><path class="j" d="M234.04,134.612c2.311,1.8,5.237,7.787,8.065,14.162,3.384,7.628,9.916,26.9,11.163,41.407.823-2.781,1.179-8.318,1.384-12.069a97.274,97.274,0,0,0-7.358-41.13c-2.219-5-10.012-21.941-14.952-24.9"/><path class="d" d="M231.332,113.805c.138.086.272.174.4.268-.365-.261.11.1.15.133.3.272.588.548.865.843a20.119,20.119,0,0,1,1.661,2.038,64.185,64.185,0,0,1,3.776,6.02c2.26,4,4.289,8.125,6.209,12.295a93.3,93.3,0,0,1,8.244,33.915,96.339,96.339,0,0,1-.16,11.649,36.952,36.952,0,0,1-1.266,9.066c-.811,2.45,3.05,3.5,3.857,1.063a36.7,36.7,0,0,0,1.3-8.592,103.961,103.961,0,0,0,.377-10.411,101.391,101.391,0,0,0-2.94-21.768c-2.415-9.9-6.645-19.222-11.545-28.127a68.839,68.839,0,0,0-4.395-7.129,17,17,0,0,0-4.514-4.717c-2.192-1.362-4.2,2.1-2.019,3.454Z"/><path class="d" d="M232.626,136.027a12.227,12.227,0,0,1,2.579,3.3c1.068,1.775,2,3.629,2.9,5.5,1.489,3.1,2.783,6.014,3.979,9.16a176.292,176.292,0,0,1,6.619,21.472,106.488,106.488,0,0,1,2.442,13.408,2.059,2.059,0,0,0,2,2,2.012,2.012,0,0,0,2-2,134.429,134.429,0,0,0-5.371-24.665,151.665,151.665,0,0,0-7.523-19.93,76.009,76.009,0,0,0-3.5-6.8,15.876,15.876,0,0,0-3.3-4.27c-1.977-1.616-4.824,1.2-2.828,2.829Z"/><path class="d" d="M237.8,192.4c3.06.44,6.069,1.223,9.149,1.521a10.1,10.1,0,0,0,7.607-1.941,2.011,2.011,0,0,0,0-2.828,2.046,2.046,0,0,0-2.828,0c.267-.215-.312.2-.376.234s-.731.344-.364.2a6.63,6.63,0,0,1-1.466.38c.4-.057-.38.021-.454.024-.275.013-.55.015-.825.01-.582-.012-1.161-.064-1.739-.128-.33-.036-1.008-.147-1.553-.242-.652-.115-1.3-.24-1.953-.365-1.374-.264-2.749-.524-4.134-.723a2.067,2.067,0,0,0-2.461,1.4,2.014,2.014,0,0,0,1.4,2.46Z"/><path class="d" d="M251.142,190.564c.063-.578-.076.239-.129.422-.064.22-.15.358-.01.067-.066.137-.13.274-.2.407-.152.281-.331.541-.507.807-.292.438.26-.28-.1.125-.115.13-.224.263-.341.391a14.231,14.231,0,0,1-1.621,1.5c.278-.224-.207.153-.214.159q-.24.176-.486.342-.5.342-1.019.652a22.322,22.322,0,0,1-2.18,1.151c-.477.22-.449.206-.846.359q-.566.219-1.144.406a18.352,18.352,0,0,1-2.165.562c-.182.035-.365.066-.549.095q-.222.034.082-.009l-.266.03c-.373.03-.743.055-1.117.058-2.573.022-2.579,4.022,0,4a20.84,20.84,0,0,0,10.55-3.41c2.944-1.845,5.863-4.479,6.26-8.117a2.012,2.012,0,0,0-2-2,2.046,2.046,0,0,0-2,2Z"/><path class="d" d="M143.638,200.091c-5.66,0-14.386-4.905-14.811-9.527,3.4,2.83,8.773.754,14.811-.095"/><path class="j" d="M147.93,134.612c-2.311,1.8-5.238,7.787-8.066,14.162-3.384,7.628-9.916,26.9-11.163,41.407-.823-2.781-1.179-8.318-1.383-12.069a97.243,97.243,0,0,1,7.358-41.13c2.218-5,10.011-21.941,14.952-24.9"/><path class="d" d="M148.618,110.351a15.752,15.752,0,0,0-4.049,4.087,57.92,57.92,0,0,0-3.929,6.1c-2.388,4.165-4.513,8.483-6.52,12.843a98.543,98.543,0,0,0-8.791,35.934,97.546,97.546,0,0,0,.187,12.029c.225,3.215.363,6.668,1.383,9.749.8,2.433,4.669,1.391,3.857-1.063a33.275,33.275,0,0,1-1.185-7.916c-.252-3.336-.418-6.677-.346-10.024a96.311,96.311,0,0,1,2.8-20.705c2.289-9.393,6.233-18.143,10.837-26.612a76.445,76.445,0,0,1,4.232-7.024,23.876,23.876,0,0,1,1.834-2.378,13.712,13.712,0,0,1,1.019-1.041,2.267,2.267,0,0,1,.694-.527c2.182-1.356.176-4.818-2.019-3.454Z"/><path class="d" d="M146.516,133.2c-2.8,2.29-4.472,6.231-6,9.4-1.568,3.248-3.033,6.548-4.326,9.915a174.63,174.63,0,0,0-6.868,22.273,114.011,114.011,0,0,0-2.492,14.077,2.014,2.014,0,0,0,2,2,2.046,2.046,0,0,0,2-2A128.781,128.781,0,0,1,136,165.448a144.766,144.766,0,0,1,6.978-18.73c1.057-2.287,2.153-4.565,3.412-6.748a13.777,13.777,0,0,1,2.955-3.943c1.994-1.63-.85-4.446-2.828-2.829Z"/><path class="d" d="M143.106,188.541c-1.386.2-2.76.459-4.135.723-.65.125-1.3.25-1.953.365-.544.095-1.222.206-1.553.242-.578.064-1.156.116-1.738.128-.275,0-.55,0-.825-.01-.074,0-.85-.081-.454-.024a6.616,6.616,0,0,1-1.466-.38c.367.143-.3-.161-.365-.2s-.642-.449-.375-.234a2.061,2.061,0,0,0-2.829,0,2.013,2.013,0,0,0,0,2.828,10.1,10.1,0,0,0,7.607,1.941c3.081-.3,6.089-1.081,9.149-1.521a2.013,2.013,0,0,0,1.4-2.46,2.052,2.052,0,0,0-2.46-1.4Z"/><path class="d" d="M126.827,190.564c.4,3.638,3.316,6.272,6.26,8.117a20.844,20.844,0,0,0,10.551,3.41c2.574.022,2.577-3.978,0-4-.344,0-.686-.018-1.029-.049-.132-.013-.539-.069-.182-.016-.183-.027-.366-.058-.548-.091a18.312,18.312,0,0,1-2.257-.58q-.578-.186-1.144-.406s-.577-.232-.281-.108c-.19-.079-.378-.165-.565-.251a22.777,22.777,0,0,1-2.18-1.151q-.517-.31-1.018-.652-.246-.167-.486-.342c-.056-.041-.49-.381-.214-.159a14.231,14.231,0,0,1-1.621-1.5c-.117-.128-.227-.261-.341-.391-.278-.316.152.249-.1-.125-.162-.244-.327-.482-.47-.739-.072-.131-.125-.284-.207-.407s.1.35-.019-.067c-.038-.137-.086-.27-.12-.409s-.1-.664-.033-.081a2.059,2.059,0,0,0-2-2,2.013,2.013,0,0,0-2,2Z"/><path class="k" d="M190.059,92.6c7.823.084,22.079.33,31.556,1.669,4.4.622,8.647,2.623,9.753,8.184a117.572,117.572,0,0,1,1.81,14.4c1.868,26.647,3.517,53.143,4.451,80.089a8.537,8.537,0,0,1-.331,3.97,6.346,6.346,0,0,1-2.609,2.574c-4.637,2.781-10.472,2.763-15.957,3.049-13.095.683-19.677.283-28.682.275-8.5-.008-16.143-.189-28.643-.841-5.484-.286-10.068-.816-13.676-2.62a7.745,7.745,0,0,1-2.99-3.1c-.573-1.228-.489-4.381-.406-5.721,1.769-28.67,1.566-49.69,3.264-76.689a96.252,96.252,0,0,1,1.952-14.771c1.669-6.524,5.637-9.656,11.379-10.013C170.481,92.463,182.235,92.686,190.059,92.6Z"/><path class="k" d="M225.221,163.185c-.093-.791-1.22-3.323-3.1-3.957-5.561-1.871-59.889-1.858-63.648.072-1.979,1.016-2.148,3.2-2.193,4.17-.429,9.309-1.568,24.241-.035,28.8,4.491,4.385,65.707,4.629,68.87,1.284C227.424,191.114,225.863,168.639,225.221,163.185Z"/><path class="d" d="M166.3,168.607c13.307.271,26.633-.194,39.942-.208,2.834,0,5.67-.01,8.5.085,2.574.087,2.571-3.914,0-4-13.244-.446-26.542.085-39.79.15-2.885.014-5.771.032-8.655-.027-2.575-.052-2.574,3.948,0,4Z"/><path class="d" d="M190.059,94.6c5.617.059,11.236.073,16.85.3,3.122.127,6.243.313,9.352.624a29.848,29.848,0,0,1,7,1.3,10.253,10.253,0,0,1,5.063,3.5,7.791,7.791,0,0,1,1.2,3.115c.343,1.741.619,3.5.85,5.258.932,7.086,1.231,14.265,1.708,21.392.963,14.378,1.838,28.761,2.545,43.154q.532,10.857.928,21.72a26.68,26.68,0,0,1,.117,4.411c-.19,1.411-1.573,2.2-2.719,2.8a22.3,22.3,0,0,1-8.681,2.069c-10.95.846-21.908.633-32.875.579-11.185-.055-22.466-.1-33.612-1.092a27.99,27.99,0,0,1-8.251-1.731,5.745,5.745,0,0,1-2.748-2.179,5.229,5.229,0,0,1-.508-2.715c-.069-2.965.26-5.95.42-8.909q.276-5.117.5-10.235c.546-12.621.84-25.251,1.312-37.875.242-6.487.537-12.972.919-19.452.334-5.654.6-11.526,2.051-17.027,1.221-4.629,5.486-7.292,9.945-8.237a51.063,51.063,0,0,1,9.05-.611c3.4-.1,6.8-.122,10.2-.128,3.128,0,6.256.007,9.384-.024,2.572-.026,2.578-4.026,0-4-7.009.07-14.019-.047-21.025.2-5.719.2-11.415.456-16.156,4.062a14.375,14.375,0,0,0-4.832,6.354,38.014,38.014,0,0,0-1.682,8.632c-.843,6.565-1.1,13.2-1.415,19.808-.632,13.277-.934,26.567-1.416,39.85-.256,7.035-.565,14.068-.965,21.1a46.34,46.34,0,0,0-.144,8.426,8.4,8.4,0,0,0,5.247,6.488c5.984,2.588,12.92,2.438,19.316,2.732,5.695.261,11.392.455,17.092.527,10.9.138,21.823.364,32.713-.14,6.4-.3,13.838.006,19.385-3.722a7.708,7.708,0,0,0,3.05-3.466,12.091,12.091,0,0,0,.385-5c-.141-3.793-.28-7.586-.44-11.379-.644-15.235-1.5-30.46-2.476-45.676q-.721-11.273-1.518-22.538c-.258-3.613-.628-7.216-1.165-10.8-.458-3.052-.846-6.049-2.815-8.539-3.364-4.254-8.861-5.328-13.944-5.886-6.3-.692-12.664-.861-19-.95-2.731-.038-5.462-.052-8.193-.08C187.484,90.575,187.482,94.575,190.059,94.6Z"/><path class="d" d="M174.254,93.164a39.288,39.288,0,0,1,4.04-7.6,9.26,9.26,0,0,1,.869-.957c.321-.277.448-.243,1.082-.389a25.829,25.829,0,0,1,3.851-.5,84.408,84.408,0,0,1,8.639-.2c1.431.039,2.859.14,4.282.3,1.234.133,3.176.129,3.974.676a11.443,11.443,0,0,1,2.9,3.327,25.385,25.385,0,0,1,2.67,5.4c.842,2.416,4.708,1.377,3.857-1.063a25.064,25.064,0,0,0-5.953-9.965c-2.561-2.4-6.338-2.347-9.674-2.571a75.435,75.435,0,0,0-9.686.039c-2.808.173-6.493.114-8.723,2.094-2.677,2.378-4.132,6.22-5.584,9.4a2.061,2.061,0,0,0,.718,2.737,2.016,2.016,0,0,0,2.736-.718Z"/><path class="d" d="M181.241,92.549c.5-.846.962-1.721,1.518-2.534.015-.023.313-.452.2-.3.109-.149.443-.379.117-.177-.4.25-.084.051.111.031,0,0,.578-.091.293-.053a45.617,45.617,0,0,1,5.915-.229c2.189,0,4.378-.015,6.561.167a10.193,10.193,0,0,0,1.1.1l.4.041q-.522-.249-.259-.1c.106.065.095.056-.032-.026q.126.114.24.24c.137.161.284.312.415.478.633.794,1.161,1.674,1.745,2.5a2.055,2.055,0,0,0,2.737.718,2.018,2.018,0,0,0,.717-2.737c-.782-1.111-1.506-2.262-2.37-3.314a4.359,4.359,0,0,0-3.193-1.765,72.448,72.448,0,0,0-8.056-.311,40.317,40.317,0,0,0-7.084.39c-2.39.435-3.4,2.962-4.521,4.849-1.316,2.219,2.14,4.233,3.453,2.018Z"/><path class="d" d="M146.94,106.712c.686,3.4,4.249,5.777,7.447,6.476a32.621,32.621,0,0,0,6.7.279q8.178.047,16.355.126c13.446.109,26.893.221,40.339.139,3.258-.02,6.725.251,9.95-.25,3.81-.59,5.906-3.5,6.2-7.188.207-2.566-3.794-2.553-4,0-.21,2.608-2.024,3.318-4.457,3.357q-3.927.063-7.855.082-9.227.054-18.453,0c-11.693-.048-23.385-.167-35.078-.248q-3.273-.024-6.545-.034c-2.516-.005-6.159-.9-6.746-3.8-.509-2.522-4.365-1.455-3.857,1.063Z"/><path class="d" d="M145.461,203.827a10.006,10.006,0,0,0,5.323,6.911c3.095,1.5,6.514,1.5,9.877,1.727q10.284.7,20.59.972,10.28.27,20.563.135c7.229-.087,14.509-.14,21.725-.616,5.508-.363,12.622-2.128,13.507-8.617a2.071,2.071,0,0,0-1.4-2.461,2.014,2.014,0,0,0-2.46,1.4,5.339,5.339,0,0,1-2.865,4.157,20.412,20.412,0,0,1-6.97,1.534c-6.708.381-13.449.492-20.166.588-12.469.177-24.942-.049-37.392-.766q-2.68-.155-5.36-.338a47.29,47.29,0,0,1-5.23-.426c-2.84-.517-5.372-2.267-5.888-5.261a2.017,2.017,0,0,0-2.46-1.4,2.047,2.047,0,0,0-1.4,2.461Z"/><path class="d" d="M227.15,162.654a7.279,7.279,0,0,0-4.551-5.371,13.677,13.677,0,0,0-2.453-.436c-2.563-.328-5.152-.46-7.732-.58-7.995-.375-16.008-.446-24.011-.427-7.551.019-15.118.095-22.658.547a49.076,49.076,0,0,0-6.823.7,5.338,5.338,0,0,0-3.13,1.866c-1.654,2.014-1.513,4.64-1.64,7.093-.3,5.753-.672,11.51-.684,17.272a52.964,52.964,0,0,0,.331,6.875c.215,1.665.446,3.2,1.882,4.227a15.106,15.106,0,0,0,5.721,2.067,81.145,81.145,0,0,0,9.612,1.284c8.1.693,16.251.8,24.372.687,7.3-.1,14.624-.353,21.88-1.159a41.3,41.3,0,0,0,6.877-1.129,4.643,4.643,0,0,0,3.624-4.017,55.114,55.114,0,0,0,.529-11.78c-.1-4.384-.342-8.768-.694-13.138-.108-1.351-.225-2.7-.381-4.049a2.062,2.062,0,0,0-2-2,2.012,2.012,0,0,0-2,2,152.364,152.364,0,0,1,1.038,24.2c-.036.813-.086,1.627-.169,2.437a9.969,9.969,0,0,1-.309,1.85c-.054.208-.124.409-.186.614-.119.388.235-.4.031-.09-.049.075-.084.157-.139.229.173-.226.714-.6.068-.248-.124.068.572-.171.086-.045-.159.041-.316.105-.474.153-.428.127-.864.227-1.3.319-.455.1-.913.179-1.371.255q-.422.07-.846.134l-.447.065a1.427,1.427,0,0,1-.249.035,199.673,199.673,0,0,1-21.212,1.321c-8.221.173-16.47.1-24.674-.485a77.567,77.567,0,0,1-10.444-1.269,28.436,28.436,0,0,1-3.639-.99c-.574-.2.16.121-.228-.093-.2-.108-.406-.2-.6-.311-.075-.044-.147-.1-.223-.138-.288-.153-.28-.011.079.076-.117-.029-.279-.258-.355-.347l.514.883c-1.114-3.467-.751-7.919-.656-11.731.13-5.2.465-10.4.719-15.6a7.136,7.136,0,0,1,.254-2.21,2,2,0,0,1,.551-.891c.123-.107.412-.191.477-.3-.361.6-.531.134-.306.132a13.236,13.236,0,0,0,1.7-.352c.388-.06-.428.054-.15.021.1-.012.193-.026.29-.036.207-.022.414-.048.622-.07.545-.057,1.09-.105,1.636-.149,1.247-.1,2.5-.176,3.744-.242,14.3-.748,28.722-.691,43.029-.145,2.9.111,5.807.238,8.7.524.26.026.519.053.779.083.171.02,1,.138.275.03.371.055.743.107,1.11.186a3.274,3.274,0,0,1,2.348,2.726,2.017,2.017,0,0,0,2.461,1.4A2.047,2.047,0,0,0,227.15,162.654Z"/><path class="d" d="M215,112.325c-.811.073-1.62.112-2.433.142l2,2c-.078-2.016-.168-4.039-.171-6.058l-2,2c.836,0,1.673-.02,2.507-.087l-2-2c0,2,.095,4,.1,6a2,2,0,0,0,4,0c0-2-.095-4-.1-6a2.015,2.015,0,0,0-2-2c-.834.067-1.671.086-2.507.087a2.028,2.028,0,0,0-2,2c0,2.019.093,4.042.171,6.058a2.026,2.026,0,0,0,2,2c.813-.03,1.622-.069,2.433-.142a2.149,2.149,0,0,0,1.414-.586A2,2,0,0,0,215,112.325Z"/><path class="d" d="M171.76,112.325c-.811.073-1.621.112-2.433.142l2,2c-.078-2.016-.168-4.039-.171-6.058l-2,2c.836,0,1.673-.02,2.507-.087l-2-2c0,2,.095,4,.1,6a2,2,0,0,0,4,0c0-2-.095-4-.1-6a2.015,2.015,0,0,0-2-2c-.834.067-1.671.086-2.507.087a2.028,2.028,0,0,0-2,2c0,2.019.093,4.042.171,6.058a2.026,2.026,0,0,0,2,2c.812-.03,1.622-.069,2.433-.142a2.149,2.149,0,0,0,1.414-.586,2,2,0,0,0-1.414-3.414Z"/><path class="e" d="M163.2,29.773c1.176-6.429,3.695-13.415,7.444-18.258,5.462-7.054,12.935-9.444,24.692-9.444,12.366,0,19.812,4.785,23.78,9.217,5.842,6.523,9.331,18.2,8.648,25.943l-.045.511.8.854c1.213,1.289,3.119,5.558,2.427,7.206-.922,2.194-3.433,3.792-5.613,4.627-10.758,4.121-20.3,5.31-31.708,5.31-10.482,0-17.751-.91-27.659-4.172-2.22-.731-5.327-2.736-6.249-4.93a5.654,5.654,0,0,1,0-4.7c.955-2.384,1.905-2.864,2.724-5.053A45,45,0,0,1,163.2,29.773Z"/><path class="d" d="M187.4,43.786A56.5,56.5,0,0,0,199.141,44a2,2,0,0,0,0-4c-1.872.1-3.744.206-5.619.218-.912.006-1.824-.01-2.734-.061q-.62-.035-1.237-.093c-.2-.019-.407-.043-.61-.065-.246-.031-.27-.033-.074-.007-.134-.019-.267-.039-.4-.06a2.053,2.053,0,0,0-2.46,1.4,2.022,2.022,0,0,0,1.4,2.46Z"/><path class="d" d="M191.4,36.946c0,3.431.068,6.862.069,10.293a2,2,0,1,0,4,0c0-3.431-.067-6.862-.069-10.293a2,2,0,0,0-4,0Z"/><path class="d" d="M159.882,37.586c-1.863,2.969-3.51,6.035-2.095,9.582,1.142,2.862,3.979,4.837,6.739,5.979a57.961,57.961,0,0,0,10.153,2.88,77.192,77.192,0,0,0,9.727,1.39,113.967,113.967,0,0,0,21.7-.3A70.6,70.6,0,0,0,226.971,51.9c2.666-1.2,6.084-3.656,6.121-6.912a12.622,12.622,0,0,0-3.16-7.8c-1.714-1.928-4.535.909-2.829,2.828a8.951,8.951,0,0,1,1.987,4.855c-.01.374.033.211-.268.685a5.741,5.741,0,0,1-1.2,1.317,11.106,11.106,0,0,1-3.042,1.718,72.476,72.476,0,0,1-18.048,4.482c-11.8,1.38-24.206,1.1-35.692-2.1-2.949-.822-6.122-1.566-8.347-3.821-2.434-2.468-.665-5.134.844-7.538,1.372-2.186-2.087-4.2-3.454-2.019Z"/><path class="d" d="M164.447,36.548a45.251,45.251,0,0,1,5.887-21A21.57,21.57,0,0,1,184.2,5.157a46.2,46.2,0,0,1,10.7-1.085,37.894,37.894,0,0,1,11.469,1.569A24.416,24.416,0,0,1,219.683,15.3c4.131,6.24,6.684,14.413,6.076,21.933-.208,2.566,3.793,2.552,4,0,.6-7.467-1.765-15.494-5.4-21.957A28.489,28.489,0,0,0,210.006,2.705C202.427-.389,193.609-.533,185.62.8a25.855,25.855,0,0,0-17.03,10.135c-5.291,7.14-7.845,16.827-8.143,25.616-.088,2.574,3.913,2.571,4,0Z"/><path class="d" d="M207.2,43.71c3.535-.27,7.063-.67,10.558-1.272,3.455-.595,6.833-1.5,10.231-2.354,2.495-.627,1.438-4.486-1.063-3.857-3.276.823-6.535,1.7-9.864,2.29-3.264.577-6.558.941-9.862,1.193a2.049,2.049,0,0,0-2,2,2.017,2.017,0,0,0,2,2Z"/><path class="d" d="M161.058,39.109c5.746,2.808,12.254,3.989,18.575,4.6a2.014,2.014,0,0,0,2-2,2.043,2.043,0,0,0-2-2c-5.576-.537-11.487-1.574-16.556-4.051a2.051,2.051,0,0,0-2.736.718,2.018,2.018,0,0,0,.717,2.736Z"/><path class="c" d="M298.909,108.56c.065,1.978.518,9.335.747,11.72,4.289-.285,11.682-1.1,14.72-1.542-.133-3.057-.582-7.673-.945-11.428A113.433,113.433,0,0,0,298.909,108.56Z"/><path class="h" d="M286.963,196.844l25.977-7.935a3.358,3.358,0,0,0,2.111-4.25l-12.036-40.814a3.359,3.359,0,0,0-4.127-2.345l-25.976,7.934a3.36,3.36,0,0,0-2.112,4.252L282.836,194.5A3.36,3.36,0,0,0,286.963,196.844Z"/><path class="c" d="M296.213,158.292a1.351,1.351,0,0,1,.654.8l1.439,4.889-13.422,4.1c-.642-2.186-1.438-4.889-1.438-4.889a1.358,1.358,0,0,1,.9-1.7l10.822-3.306A1.354,1.354,0,0,1,296.213,158.292Z"/><path class="l" d="M300.554,176.913l.144-.043a1.312,1.312,0,0,0,.931-1.6L298.3,163.933l-13.426,4.1c1.3,4.412,3.331,11.333,3.331,11.333a1.311,1.311,0,0,0,1.668.808Z"/><path class="d" d="M297.5,142.067c-.154-2.424-.411-5.759,1.077-7.872a1.557,1.557,0,0,1,1.444-.735,3.839,3.839,0,0,1,1.042.174,11.924,11.924,0,0,1,1.782.609c1.389.6,2.668,1.739,4.143,2.083a4.954,4.954,0,0,0,4.46-.982c2.141-1.812,1.875-4.445.872-6.737-1.225-2.8-2.765-5.442-2.929-8.573-.134-2.561-4.135-2.577-4,0a23.186,23.186,0,0,0,2.659,8.857,16.116,16.116,0,0,1,1.092,2.592c.095.323.08-.187.012.1-.031.13.052.134-.107.429s.115-.069-.112.219c-.137.173-.607.3-.348.256a2.864,2.864,0,0,1-.535-.017c-.312-.046-.1.007-.488-.235a22.757,22.757,0,0,0-2.336-1.275,14.952,14.952,0,0,0-3.895-1.351,5.893,5.893,0,0,0-6.275,2.668c-1.763,2.8-1.76,6.609-1.558,9.791.163,2.556,4.164,2.575,4,0Z"/><path class="d" d="M296.909,108.56c.133,3.905.379,7.831.747,11.72a2.032,2.032,0,0,0,2,2c5.094-.344,10.2-.885,15.251-1.613a2,2,0,0,0,1.469-1.929c-.173-3.818-.578-7.625-.945-11.428a2.043,2.043,0,0,0-2-2c-2.662.034-5.322.218-7.972.453-2.364.209-4.747.433-7.081.869a2.018,2.018,0,0,0-1.4,2.46,2.043,2.043,0,0,0,2.46,1.4c.416-.078.833-.144,1.251-.2.133-.02.721-.1.314-.045q.417-.054.836-.105,1.918-.228,3.844-.391c2.575-.225,5.159-.4,7.745-.433l-2-2c.367,3.8.772,7.61.945,11.428l1.468-1.928-.61.085c-.283.039.513-.066,0,0l-.329.042q-.825.106-1.651.2-1.938.233-3.878.437c-2.568.273-5.139.526-7.716.7l2,2c-.368-3.889-.614-7.815-.747-11.72a2,2,0,0,0-4,0Z"/><path class="d" d="M304.427,107.647c-.094-1.085-.29-2.168-.329-3.257l-2,2c2.546-.156,5.086-.442,7.634-.557l-2-2c.091,1.117.239,2.233.386,3.343a2.206,2.206,0,0,0,.586,1.414,2,2,0,0,0,2.828,0,1.911,1.911,0,0,0,.586-1.414c-.147-1.11-.3-2.226-.386-3.343a2.033,2.033,0,0,0-2-2c-2.548.115-5.088.4-7.634.557a2.032,2.032,0,0,0-2,2c.039,1.089.235,2.172.329,3.257a2,2,0,0,0,4,0Z"/><path class="d" d="M294.03,158.437q-.342-1.144-.7-2.285a2.034,2.034,0,0,0-2.461-1.4c-1.6.458-3.179,1.024-4.738,1.6a2.112,2.112,0,0,0-1.2.919,2.033,2.033,0,0,0-.2,1.542c.207.659.39,1.327.572,1.994a2,2,0,1,0,3.857-1.064c-.182-.667-.365-1.334-.572-1.994l-1.4,2.46c1.56-.571,3.141-1.138,4.739-1.6l-2.461-1.4q.357,1.14.7,2.286a2.093,2.093,0,0,0,.919,1.195,2,2,0,0,0,2.938-2.259Z"/><path class="d" d="M287.5,198.773l15.249-4.658,8.826-2.7c.613-.188,1.235-.359,1.843-.563a5.42,5.42,0,0,0,3.8-5.174,16.442,16.442,0,0,0-1.059-4.36l-2.335-7.918-6.142-20.829-2.151-7.293c-.6-2.031-1.112-4.053-3.126-5.217-2.315-1.338-4.666-.3-6.961.4l-9.591,2.929-9.889,3.021c-1.9.581-4.388.993-5.825,2.459-1.975,2.017-1.5,4.522-.8,6.895l2.037,6.907,6.093,20.661c1.147,3.889,2.162,7.849,3.449,11.695a5.471,5.471,0,0,0,6.587,3.743c2.5-.62,1.439-4.478-1.064-3.857-1.624.4-1.889-1.706-2.214-2.809l-2-6.795L276.4,165.621c-1.21-4.105-2.477-8.2-3.633-12.319-.5-1.777.908-2.011,2.195-2.4L283,148.443c5.378-1.642,10.739-3.353,16.137-4.929,1.42-.415,1.876.621,2.21,1.754l1.671,5.666,9.914,33.615a4.821,4.821,0,0,1,.277,1.133c.025.889-.589,1.233-1.308,1.453l-6.586,2.012-17.7,5.408-1.183.361C283.976,195.666,285.023,199.528,287.5,198.773Z"/><path class="d" d="M290.407,182.1l6.344-1.938c2.122-.648,5.937-1.1,6.728-3.546.587-1.811-.653-4.369-1.159-6.086l-2.527-8.588c-.585-1.985-.949-5.046-3.3-5.686a5.266,5.266,0,0,0-3.037.36l-4.024,1.23-4,1.223a9.771,9.771,0,0,0-2.566.951c-2.457,1.637-1.1,4.549-.452,6.741l2.789,9.477c.309,1.05.606,2.1.927,3.149a3.539,3.539,0,0,0,4.278,2.713c2.523-.5,1.455-4.357-1.063-3.857.569-.113.754.894.706.3a4.407,4.407,0,0,0-.238-.807l-.859-2.919-2.259-7.675-.9-3.071c-.058-.2-.221-1.3-.413-1.4.264.146-.488.755-.492.754.034.015.143-.057.177-.055a3.7,3.7,0,0,0,1-.3l3.4-1.039,3.8-1.16,1.4-.427a3.212,3.212,0,0,0,.919-.281c.011-.009.121-.021.128-.039-.106.3-.741-.511-.757-.471-.035.084.124.423.149.506l.739,2.514,2.231,7.579.991,3.366a8.419,8.419,0,0,0,.572,1.945c.02.031.014.121.043.145-.3-.253.749-.644.474-.754-.14-.056-.64.2-.78.239l-3.677,1.123-6.344,1.938C286.889,179,287.936,182.859,290.407,182.1Z"/><path class="d" d="M296.458,162.454l-9.448,2.886-1.374.419a2,2,0,0,0,1.063,3.858l9.449-2.887,1.374-.419a2,2,0,0,0-1.064-3.857Z"/></svg>