<?xml version="1.0" encoding="iso-8859-1"?>
<!-- Uploaded to: SVG Repo, www.svgrepo.com, Generator: SVG Repo Mixer Tools -->
<svg version="1.1" id="Capa_1" xmlns="http://www.w3.org/2000/svg" xmlns:xlink="http://www.w3.org/1999/xlink" 
	 viewBox="0 0 58 58" xml:space="preserve">
<g>
	<path style="fill:#805333;" d="M27,49H11V22h3.122c1.738,0,3.301-1.058,3.947-2.672l0,0c0.447-1.117,1.339-1.789,2.435-2.122
		c1.206-0.367,2.338-0.943,3.446-1.545L25,14h2V49z"/>
	<path style="fill:#805333;" d="M32,49h15V22h-2.122c-1.738,0-3.301-1.058-3.947-2.672v0c-0.447-1.117-1.339-1.789-2.435-2.122
		c-1.206-0.367-2.338-0.943-3.446-1.545L34,14h-2V49z"/>
	<rect y="55" style="fill:#7D4B02;" width="10" height="3"/>
	<rect x="48" y="55" style="fill:#7D4B02;" width="10" height="3"/>
	<rect style="fill:#7D4B02;" width="10" height="10"/>
	<g>
		<polygon style="fill:#7F6E5D;" points="5,47 5,43 8,43 8,28 5,28 5,24 8,24 8,10 1,10 1,55 8,55 8,47 		"/>
	</g>
	<rect x="48" style="fill:#7D4B02;" width="10" height="10"/>
	<rect x="5" y="24" style="fill:#BDC3C7;" width="6" height="4"/>
	<rect x="5" y="43" style="fill:#BDC3C7;" width="6" height="4"/>
	<rect x="47" y="24" style="fill:#BDC3C7;" width="6" height="4"/>
	<rect x="47" y="43" style="fill:#BDC3C7;" width="6" height="4"/>
	<rect x="10" style="fill:#7F6E5D;" width="38" height="8"/>
	<g>
		<polygon style="fill:#7F6E5D;" points="50,10 50,24 53,24 53,28 50,28 50,43 53,43 53,47 50,47 50,55 57,55 57,10 		"/>
	</g>
	<path style="fill:#CB8252;" d="M23,27h-8c-0.552,0-1-0.448-1-1s0.448-1,1-1h8c0.552,0,1,0.448,1,1S23.552,27,23,27z"/>
	<path style="fill:#CB8252;" d="M23,30h-8c-0.552,0-1-0.448-1-1s0.448-1,1-1h8c0.552,0,1,0.448,1,1S23.552,30,23,30z"/>
	<path style="fill:#CB8252;" d="M23,33h-8c-0.552,0-1-0.448-1-1s0.448-1,1-1h8c0.552,0,1,0.448,1,1S23.552,33,23,33z"/>
	<path style="fill:#CB8252;" d="M44,27h-8c-0.552,0-1-0.448-1-1s0.448-1,1-1h8c0.552,0,1,0.448,1,1S44.552,27,44,27z"/>
	<path style="fill:#CB8252;" d="M44,30h-8c-0.552,0-1-0.448-1-1s0.448-1,1-1h8c0.552,0,1,0.448,1,1S44.552,30,44,30z"/>
	<path style="fill:#CB8252;" d="M44,33h-8c-0.552,0-1-0.448-1-1s0.448-1,1-1h8c0.552,0,1,0.448,1,1S44.552,33,44,33z"/>
	<path style="fill:#CB8252;" d="M23,40h-8c-0.552,0-1-0.448-1-1s0.448-1,1-1h8c0.552,0,1,0.448,1,1S23.552,40,23,40z"/>
	<path style="fill:#CB8252;" d="M23,43h-8c-0.552,0-1-0.448-1-1s0.448-1,1-1h8c0.552,0,1,0.448,1,1S23.552,43,23,43z"/>
	<path style="fill:#CB8252;" d="M23,46h-8c-0.552,0-1-0.448-1-1s0.448-1,1-1h8c0.552,0,1,0.448,1,1S23.552,46,23,46z"/>
	<path style="fill:#CB8252;" d="M44,40h-8c-0.552,0-1-0.448-1-1s0.448-1,1-1h8c0.552,0,1,0.448,1,1S44.552,40,44,40z"/>
	<path style="fill:#CB8252;" d="M44,43h-8c-0.552,0-1-0.448-1-1s0.448-1,1-1h8c0.552,0,1,0.448,1,1S44.552,43,44,43z"/>
	<path style="fill:#CB8252;" d="M44,46h-8c-0.552,0-1-0.448-1-1s0.448-1,1-1h8c0.552,0,1,0.448,1,1S44.552,46,44,46z"/>
	<path style="fill:#A46400;" d="M3,3H0v2h3c0.552,0,1-0.448,1-1S3.552,3,3,3z"/>
	<path style="fill:#A46400;" d="M5,6H0v2h5c0.552,0,1-0.448,1-1S5.552,6,5,6z"/>
	<path style="fill:#A46400;" d="M58,3h-3c-0.552,0-1,0.448-1,1s0.448,1,1,1h3V3z"/>
</g>
</svg>