<svg version="1.1" id="Layer_1" xmlns="http://www.w3.org/2000/svg" xmlns:xlink="http://www.w3.org/1999/xlink" x="0px" y="0px"
	 width="100%" viewBox="0 0 800 528" enable-background="new 0 0 800 528" xml:space="preserve">
<path fill="#000000" opacity="1.000000" stroke="none" 
	d="
M61.093178,399.286926 
	C57.917450,400.039581 55.148537,400.865234 52.472229,399.104553 
	C49.917206,397.423645 48.477371,395.133301 48.746559,391.975891 
	C49.055843,388.348114 51.282223,386.350861 54.533089,385.235077 
	C68.386398,380.480194 82.228958,375.693787 96.093033,370.970551 
	C152.185318,351.860901 208.284134,332.770477 264.380432,313.672607 
	C285.965973,306.323883 307.551178,298.974182 329.136810,291.625702 
	C329.609741,291.464691 330.104919,291.355042 330.557190,291.149841 
	C332.455811,290.288239 335.428284,290.174500 335.428802,287.590302 
	C335.429382,284.679413 332.245941,285.033325 330.363922,284.603699 
	C304.910126,278.792999 279.426270,273.114014 253.945816,267.420349 
	C214.021118,258.499054 174.092224,249.596603 134.167313,240.676239 
	C103.820847,233.895996 73.478348,227.097992 43.132236,220.316147 
	C40.690704,219.770493 38.234505,219.333908 36.392429,217.377716 
	C34.055294,214.895798 33.669254,212.057175 35.023422,209.068405 
	C36.617962,205.549088 39.683907,204.473434 43.296089,204.845825 
	C56.197159,206.175812 69.093315,207.554138 81.988380,208.941574 
	C105.962631,211.521072 129.937897,214.091522 153.906952,216.718643 
	C177.042923,219.254425 200.167053,221.898682 223.304779,224.418304 
	C245.952484,226.884552 268.614075,229.223312 291.263550,231.673187 
	C318.537231,234.623230 345.804779,237.629715 373.074463,240.616653 
	C376.639008,241.007095 379.978455,242.164505 382.646851,244.543152 
	C386.184326,247.696457 390.241089,249.911377 394.439117,251.965729 
	C397.155457,253.294968 399.486694,255.055328 401.425354,257.479004 
	C403.212158,259.712860 403.723145,261.659332 402.149658,264.227753 
	C401.036072,266.045471 400.216187,268.047211 399.879761,270.261383 
	C398.837616,277.120605 399.544800,278.128510 406.493408,279.568909 
	C411.420898,280.590363 413.525024,284.392975 414.629974,288.748383 
	C415.712128,293.013855 417.294983,296.887360 420.126373,300.343170 
	C423.926086,304.980896 429.948730,307.940674 433.864532,306.670135 
	C437.941925,305.347107 440.707062,300.220520 440.994324,293.376465 
	C439.989075,291.845032 438.096558,292.038788 436.644318,291.346252 
	C429.094482,287.745636 426.893646,277.738007 433.683594,273.441071 
	C442.583557,267.808868 440.495331,260.530121 439.250885,252.869095 
	C439.171997,252.383423 439.001923,251.912918 438.913757,251.428192 
	C438.886993,251.280914 438.993042,251.109497 439.039368,250.951691 
	C439.536865,250.126862 440.422668,249.811951 441.185974,250.051285 
	C447.958557,252.174759 453.858032,249.239975 459.985077,247.116684 
	C475.714355,241.665833 491.534119,236.476364 507.272308,231.050690 
	C510.522156,229.930313 512.484619,230.426575 514.989014,233.150253 
	C518.802856,237.297913 522.776001,241.338226 526.685059,245.423080 
	C529.084290,247.930161 532.320801,248.831406 535.752258,249.076782 
	C537.348633,249.190948 539.078247,248.564804 540.788574,249.979904 
	C539.358276,252.975113 536.463867,254.397644 533.966125,256.112549 
	C525.180481,262.144714 516.272644,267.998657 507.468933,274.004913 
	C501.511688,278.069153 501.631256,279.913330 507.953491,283.325897 
	C517.622437,288.544891 527.335938,293.681885 536.976074,298.953247 
	C538.360229,299.710144 540.033813,300.329681 541.030579,302.818970 
	C533.463562,302.705536 531.326172,307.147339 530.591125,313.832428 
	C529.860352,320.477448 532.338806,325.015991 537.791016,329.146667 
	C534.545044,330.351471 532.037659,329.283600 529.628113,328.754852 
	C505.253174,323.406036 480.891266,317.997192 456.547028,312.510437 
	C453.653198,311.858215 451.222321,312.017700 448.457336,313.394348 
	C441.673218,316.771973 433.998688,317.023376 426.744843,318.769196 
	C411.072723,322.541107 395.307770,325.930847 379.563751,329.399506 
	C322.215881,342.034119 264.862152,354.641968 207.507965,367.247772 
	C193.540207,370.317719 179.565308,373.355438 165.588303,376.383209 
	C136.236725,382.741486 106.878174,389.067474 77.531013,395.445953 
	C72.170441,396.611084 66.850288,397.962158 61.093178,399.286926 
z"/>
<path fill="#000000" opacity="1.000000" stroke="none" 
	d="
M717.460938,52.461082 
	C740.348877,69.016472 752.198364,91.024551 752.302307,119.016220 
	C752.421631,151.148102 732.654053,180.369415 702.773193,192.299469 
	C656.852783,210.633270 610.882141,228.841171 564.935242,247.108521 
	C560.913330,248.707504 556.895569,250.318649 552.901733,251.985931 
	C550.441162,253.013153 548.850586,252.485291 547.815369,249.875977 
	C544.009521,240.283432 540.164307,230.705139 536.185974,221.183273 
	C534.877747,218.052231 536.216064,216.351318 538.496887,214.440262 
	C552.024231,203.106049 566.250244,192.547211 578.379395,179.635605 
	C585.448425,172.110535 592.323486,164.373550 596.315063,154.591736 
	C597.897400,150.714050 597.935425,146.968643 596.690491,142.930878 
	C582.425476,96.665154 609.302551,50.280956 656.612122,40.232292 
	C678.278076,35.630386 698.588928,40.131931 717.460938,52.461082 
M664.756042,69.318153 
	C640.415161,72.983200 619.536804,95.269363 623.603699,125.579628 
	C627.341858,153.440018 653.671265,172.435364 681.742554,167.405060 
	C709.602112,162.412689 725.280212,137.447861 722.303406,113.362778 
	C718.692505,84.146255 693.554321,65.168327 664.756042,69.318153 
z"/>
<path fill="#000000" opacity="1.000000" stroke="none" 
	d="
M635.679138,481.392792 
	C614.347290,464.284180 604.285217,442.263458 604.810364,415.367950 
	C604.874939,412.059296 604.936646,408.564301 605.990784,405.496124 
	C609.209229,396.127686 605.215271,389.013916 599.541504,382.275604 
	C589.016235,369.775482 575.956055,360.279327 562.538025,351.225800 
	C555.497437,346.475403 548.393127,341.819336 541.308594,337.134369 
	C539.285156,335.796265 537.610474,334.514008 538.506104,331.522308 
	C541.789062,320.556427 544.893188,309.536957 548.097900,298.422333 
	C552.755676,298.143005 556.596497,299.914642 560.493469,300.998108 
	C609.055481,314.499420 657.608521,328.034576 706.112061,341.744415 
	C735.988037,350.189087 755.740784,369.356384 763.161438,399.551300 
	C773.623474,442.121948 746.837402,484.966125 704.108643,495.178894 
	C679.413269,501.081421 656.561523,496.766388 635.679138,481.392792 
M705.193115,463.717560 
	C727.665955,452.890869 739.733032,429.139069 733.965515,407.084259 
	C726.925171,380.161896 701.936890,364.678192 674.723694,370.375702 
	C648.805176,375.802155 630.583252,402.663574 635.918823,427.579163 
	C642.835876,459.880310 673.210571,476.016785 705.193115,463.717560 
z"/>
</svg>